<?xml version="1.0" ?><svg data-name="Layer 1" id="Layer_1" viewBox="0 0 100 100" xmlns="http://www.w3.org/2000/svg"><title/><path d="M50,5a1,1,0,0,0-1,1V94a1,1,0,0,0,2,0V6A1,1,0,0,0,50,5Z"/><path d="M5.28894,50.70117l.00391.00592,10,10a1,1,0,1,0,1.4143-1.41418l-.00006-.00006L8.41425,51H40a1,1,0,0,0,0-2H8.41412l8.293-8.29291a1,1,0,0,0-1.41418-1.41418L5.29285,49.29285l-.00647.00976a.99669.99669,0,0,0,.00256,1.39856Z"/><path d="M94.92249,49.61621a1.00009,1.00009,0,0,0-.212-.31836l-.00336-.005-10-10a1,1,0,1,0-1.41418,1.4143L91.58575,49H60a1,1,0,0,0,0,2H91.58563l-8.29278,8.29285a1.00006,1.00006,0,0,0,1.4143,1.4143l9.99994-10.00006a.9628.9628,0,0,0,.28559-.671C94.99316,50.02344,95,50.01282,95,50s-.00684-.02344-.00732-.03613A1.00146,1.00146,0,0,0,94.92249,49.61621Z"/></svg>