<svg width="18" height="18" viewBox="0 0 18 18" fill="none" xmlns="http://www.w3.org/2000/svg">
<g id="Vector 2">
<g id="Group 899">
<g id="vector">
<mask id="path-1-outside-1_755_828" maskUnits="userSpaceOnUse" x="0" y="0" width="18" height="18" fill="black">
<rect fill="white" width="18" height="18"/>
<path fill-rule="evenodd" clip-rule="evenodd" d="M9 1C6.8272 1 6.5552 1.00907 5.70187 1.048C4.85013 1.08693 4.26827 1.2224 3.75947 1.42027C3.22613 1.6208 2.7424 1.93547 2.3424 2.34293C1.93558 2.74247 1.62072 3.22586 1.41973 3.75947C1.22293 4.26827 1.08693 4.85067 1.048 5.7024C1.0096 6.5552 1 6.82667 1 9C1 11.1733 1.00907 11.4448 1.048 12.2981C1.08693 13.1499 1.2224 13.7317 1.42027 14.2405C1.6208 14.7739 1.93547 15.2576 2.34293 15.6576C2.74248 16.0644 3.22587 16.3793 3.75947 16.5803C4.26827 16.7776 4.85013 16.9131 5.70187 16.952C6.5552 16.9909 6.8272 17 9 17C11.1728 17 11.4448 16.9909 12.2981 16.952C13.1499 16.9131 13.7317 16.7776 14.2405 16.5797C14.7739 16.3792 15.2576 16.0645 15.6576 15.6571C16.0644 15.2575 16.3793 14.7741 16.5803 14.2405C16.7776 13.7317 16.9131 13.1499 16.952 12.2981C16.9909 11.4448 17 11.1728 17 9C17 6.8272 16.9909 6.5552 16.952 5.70187C16.9131 4.85013 16.7776 4.26827 16.5797 3.75947C16.3789 3.22563 16.064 2.74204 15.6571 2.3424C15.2575 1.93558 14.7741 1.62072 14.2405 1.41973C13.7317 1.22293 13.1493 1.08693 12.2976 1.048C11.4448 1.0096 11.1733 1 9 1ZM9 2.4416C11.136 2.4416 11.3893 2.4496 12.2331 2.488C13.0128 2.52373 13.4363 2.65333 13.7184 2.76373C14.0917 2.90827 14.3584 3.08213 14.6384 3.3616C14.9184 3.6416 15.0917 3.90827 15.2363 4.2816C15.3461 4.56373 15.4763 4.9872 15.512 5.76693C15.5504 6.61067 15.5584 6.864 15.5584 9C15.5584 11.136 15.5504 11.3893 15.512 12.2331C15.4763 13.0128 15.3467 13.4363 15.2363 13.7184C15.1082 14.0659 14.9039 14.3803 14.6384 14.6384C14.3803 14.904 14.0659 15.1083 13.7184 15.2363C13.4363 15.3461 13.0128 15.4763 12.2331 15.512C11.3893 15.5504 11.1365 15.5584 9 15.5584C6.86347 15.5584 6.61067 15.5504 5.76693 15.512C4.9872 15.4763 4.56373 15.3467 4.2816 15.2363C3.93411 15.1082 3.61974 14.9039 3.3616 14.6384C3.09609 14.3802 2.8918 14.0659 2.76373 13.7184C2.65387 13.4363 2.52373 13.0128 2.488 12.2331C2.4496 11.3893 2.4416 11.136 2.4416 9C2.4416 6.864 2.4496 6.61067 2.488 5.76693C2.52373 4.9872 2.65333 4.56373 2.76373 4.2816C2.90827 3.90827 3.08213 3.6416 3.3616 3.3616C3.6197 3.09602 3.93409 2.89172 4.2816 2.76373C4.56373 2.65387 4.9872 2.52373 5.76693 2.488C6.61067 2.4496 6.864 2.4416 9 2.4416Z"/>
</mask>
<path fill-rule="evenodd" clip-rule="evenodd" d="M9 1C6.8272 1 6.5552 1.00907 5.70187 1.048C4.85013 1.08693 4.26827 1.2224 3.75947 1.42027C3.22613 1.6208 2.7424 1.93547 2.3424 2.34293C1.93558 2.74247 1.62072 3.22586 1.41973 3.75947C1.22293 4.26827 1.08693 4.85067 1.048 5.7024C1.0096 6.5552 1 6.82667 1 9C1 11.1733 1.00907 11.4448 1.048 12.2981C1.08693 13.1499 1.2224 13.7317 1.42027 14.2405C1.6208 14.7739 1.93547 15.2576 2.34293 15.6576C2.74248 16.0644 3.22587 16.3793 3.75947 16.5803C4.26827 16.7776 4.85013 16.9131 5.70187 16.952C6.5552 16.9909 6.8272 17 9 17C11.1728 17 11.4448 16.9909 12.2981 16.952C13.1499 16.9131 13.7317 16.7776 14.2405 16.5797C14.7739 16.3792 15.2576 16.0645 15.6576 15.6571C16.0644 15.2575 16.3793 14.7741 16.5803 14.2405C16.7776 13.7317 16.9131 13.1499 16.952 12.2981C16.9909 11.4448 17 11.1728 17 9C17 6.8272 16.9909 6.5552 16.952 5.70187C16.9131 4.85013 16.7776 4.26827 16.5797 3.75947C16.3789 3.22563 16.064 2.74204 15.6571 2.3424C15.2575 1.93558 14.7741 1.62072 14.2405 1.41973C13.7317 1.22293 13.1493 1.08693 12.2976 1.048C11.4448 1.0096 11.1733 1 9 1ZM9 2.4416C11.136 2.4416 11.3893 2.4496 12.2331 2.488C13.0128 2.52373 13.4363 2.65333 13.7184 2.76373C14.0917 2.90827 14.3584 3.08213 14.6384 3.3616C14.9184 3.6416 15.0917 3.90827 15.2363 4.2816C15.3461 4.56373 15.4763 4.9872 15.512 5.76693C15.5504 6.61067 15.5584 6.864 15.5584 9C15.5584 11.136 15.5504 11.3893 15.512 12.2331C15.4763 13.0128 15.3467 13.4363 15.2363 13.7184C15.1082 14.0659 14.9039 14.3803 14.6384 14.6384C14.3803 14.904 14.0659 15.1083 13.7184 15.2363C13.4363 15.3461 13.0128 15.4763 12.2331 15.512C11.3893 15.5504 11.1365 15.5584 9 15.5584C6.86347 15.5584 6.61067 15.5504 5.76693 15.512C4.9872 15.4763 4.56373 15.3467 4.2816 15.2363C3.93411 15.1082 3.61974 14.9039 3.3616 14.6384C3.09609 14.3802 2.8918 14.0659 2.76373 13.7184C2.65387 13.4363 2.52373 13.0128 2.488 12.2331C2.4496 11.3893 2.4416 11.136 2.4416 9C2.4416 6.864 2.4496 6.61067 2.488 5.76693C2.52373 4.9872 2.65333 4.56373 2.76373 4.2816C2.90827 3.90827 3.08213 3.6416 3.3616 3.3616C3.6197 3.09602 3.93409 2.89172 4.2816 2.76373C4.56373 2.65387 4.9872 2.52373 5.76693 2.488C6.61067 2.4496 6.864 2.4416 9 2.4416Z" fill="#140731" style="fill:#140731;fill:color(display-p3 0.0784 0.0275 0.1922);fill-opacity:1;"/>
<path fill-rule="evenodd" clip-rule="evenodd" d="M9 1C6.8272 1 6.5552 1.00907 5.70187 1.048C4.85013 1.08693 4.26827 1.2224 3.75947 1.42027C3.22613 1.6208 2.7424 1.93547 2.3424 2.34293C1.93558 2.74247 1.62072 3.22586 1.41973 3.75947C1.22293 4.26827 1.08693 4.85067 1.048 5.7024C1.0096 6.5552 1 6.82667 1 9C1 11.1733 1.00907 11.4448 1.048 12.2981C1.08693 13.1499 1.2224 13.7317 1.42027 14.2405C1.6208 14.7739 1.93547 15.2576 2.34293 15.6576C2.74248 16.0644 3.22587 16.3793 3.75947 16.5803C4.26827 16.7776 4.85013 16.9131 5.70187 16.952C6.5552 16.9909 6.8272 17 9 17C11.1728 17 11.4448 16.9909 12.2981 16.952C13.1499 16.9131 13.7317 16.7776 14.2405 16.5797C14.7739 16.3792 15.2576 16.0645 15.6576 15.6571C16.0644 15.2575 16.3793 14.7741 16.5803 14.2405C16.7776 13.7317 16.9131 13.1499 16.952 12.2981C16.9909 11.4448 17 11.1728 17 9C17 6.8272 16.9909 6.5552 16.952 5.70187C16.9131 4.85013 16.7776 4.26827 16.5797 3.75947C16.3789 3.22563 16.064 2.74204 15.6571 2.3424C15.2575 1.93558 14.7741 1.62072 14.2405 1.41973C13.7317 1.22293 13.1493 1.08693 12.2976 1.048C11.4448 1.0096 11.1733 1 9 1ZM9 2.4416C11.136 2.4416 11.3893 2.4496 12.2331 2.488C13.0128 2.52373 13.4363 2.65333 13.7184 2.76373C14.0917 2.90827 14.3584 3.08213 14.6384 3.3616C14.9184 3.6416 15.0917 3.90827 15.2363 4.2816C15.3461 4.56373 15.4763 4.9872 15.512 5.76693C15.5504 6.61067 15.5584 6.864 15.5584 9C15.5584 11.136 15.5504 11.3893 15.512 12.2331C15.4763 13.0128 15.3467 13.4363 15.2363 13.7184C15.1082 14.0659 14.9039 14.3803 14.6384 14.6384C14.3803 14.904 14.0659 15.1083 13.7184 15.2363C13.4363 15.3461 13.0128 15.4763 12.2331 15.512C11.3893 15.5504 11.1365 15.5584 9 15.5584C6.86347 15.5584 6.61067 15.5504 5.76693 15.512C4.9872 15.4763 4.56373 15.3467 4.2816 15.2363C3.93411 15.1082 3.61974 14.9039 3.3616 14.6384C3.09609 14.3802 2.8918 14.0659 2.76373 13.7184C2.65387 13.4363 2.52373 13.0128 2.488 12.2331C2.4496 11.3893 2.4416 11.136 2.4416 9C2.4416 6.864 2.4496 6.61067 2.488 5.76693C2.52373 4.9872 2.65333 4.56373 2.76373 4.2816C2.90827 3.90827 3.08213 3.6416 3.3616 3.3616C3.6197 3.09602 3.93409 2.89172 4.2816 2.76373C4.56373 2.65387 4.9872 2.52373 5.76693 2.488C6.61067 2.4496 6.864 2.4416 9 2.4416Z" stroke="black" style="stroke:black;stroke-opacity:1;" stroke-width="0.2" mask="url(#path-1-outside-1_755_828)"/>
</g>
<g id="vector_2">
<mask id="path-2-outside-2_755_828" maskUnits="userSpaceOnUse" x="3.88818" y="2.84131" width="11" height="11" fill="black">
<rect fill="white" x="3.88818" y="2.84131" width="11" height="11"/>
<path fill-rule="evenodd" clip-rule="evenodd" d="M9.00018 11.6693C8.64964 11.6693 8.30253 11.6003 7.97867 11.4661C7.65481 11.332 7.36055 11.1353 7.11268 10.8875C6.86481 10.6396 6.66819 10.3453 6.53404 10.0215C6.39989 9.69763 6.33085 9.35052 6.33085 8.99998C6.33085 8.64943 6.39989 8.30232 6.53404 7.97847C6.66819 7.65461 6.86481 7.36034 7.11268 7.11247C7.36055 6.8646 7.65481 6.66798 7.97867 6.53383C8.30253 6.39969 8.64964 6.33064 9.00018 6.33064C9.70813 6.33064 10.3871 6.61187 10.8877 7.11247C11.3883 7.61307 11.6695 8.29202 11.6695 8.99998C11.6695 9.70793 11.3883 10.3869 10.8877 10.8875C10.3871 11.3881 9.70813 11.6693 9.00018 11.6693ZM9.00018 4.88798C7.90961 4.88798 6.86371 5.3212 6.09256 6.09235C5.32141 6.8635 4.88818 7.90941 4.88818 8.99998C4.88818 10.0905 5.32141 11.1364 6.09256 11.9076C6.86371 12.6787 7.90961 13.112 9.00018 13.112C10.0908 13.112 11.1367 12.6787 11.9078 11.9076C12.679 11.1364 13.1122 10.0905 13.1122 8.99998C13.1122 7.90941 12.679 6.8635 11.9078 6.09235C11.1367 5.3212 10.0908 4.88798 9.00018 4.88798ZM14.3084 4.81331C14.3084 5.0711 14.206 5.31833 14.0238 5.50062C13.8415 5.6829 13.5942 5.78531 13.3364 5.78531C13.0787 5.78531 12.8314 5.6829 12.6491 5.50062C12.4669 5.31833 12.3644 5.0711 12.3644 4.81331C12.3644 4.55552 12.4669 4.30829 12.6491 4.126C12.8314 3.94372 13.0787 3.84131 13.3364 3.84131C13.5942 3.84131 13.8415 3.94372 14.0238 4.126C14.206 4.30829 14.3084 4.55552 14.3084 4.81331Z"/>
</mask>
<path fill-rule="evenodd" clip-rule="evenodd" d="M9.00018 11.6693C8.64964 11.6693 8.30253 11.6003 7.97867 11.4661C7.65481 11.332 7.36055 11.1353 7.11268 10.8875C6.86481 10.6396 6.66819 10.3453 6.53404 10.0215C6.39989 9.69763 6.33085 9.35052 6.33085 8.99998C6.33085 8.64943 6.39989 8.30232 6.53404 7.97847C6.66819 7.65461 6.86481 7.36034 7.11268 7.11247C7.36055 6.8646 7.65481 6.66798 7.97867 6.53383C8.30253 6.39969 8.64964 6.33064 9.00018 6.33064C9.70813 6.33064 10.3871 6.61187 10.8877 7.11247C11.3883 7.61307 11.6695 8.29202 11.6695 8.99998C11.6695 9.70793 11.3883 10.3869 10.8877 10.8875C10.3871 11.3881 9.70813 11.6693 9.00018 11.6693ZM9.00018 4.88798C7.90961 4.88798 6.86371 5.3212 6.09256 6.09235C5.32141 6.8635 4.88818 7.90941 4.88818 8.99998C4.88818 10.0905 5.32141 11.1364 6.09256 11.9076C6.86371 12.6787 7.90961 13.112 9.00018 13.112C10.0908 13.112 11.1367 12.6787 11.9078 11.9076C12.679 11.1364 13.1122 10.0905 13.1122 8.99998C13.1122 7.90941 12.679 6.8635 11.9078 6.09235C11.1367 5.3212 10.0908 4.88798 9.00018 4.88798ZM14.3084 4.81331C14.3084 5.0711 14.206 5.31833 14.0238 5.50062C13.8415 5.6829 13.5942 5.78531 13.3364 5.78531C13.0787 5.78531 12.8314 5.6829 12.6491 5.50062C12.4669 5.31833 12.3644 5.0711 12.3644 4.81331C12.3644 4.55552 12.4669 4.30829 12.6491 4.126C12.8314 3.94372 13.0787 3.84131 13.3364 3.84131C13.5942 3.84131 13.8415 3.94372 14.0238 4.126C14.206 4.30829 14.3084 4.55552 14.3084 4.81331Z" fill="#140731" style="fill:#140731;fill:color(display-p3 0.0784 0.0275 0.1922);fill-opacity:1;"/>
<path d="M9.00018 6.33064V6.43064V6.33064ZM4.88818 8.99998H4.78818H4.88818ZM13.1122 8.99998H13.2122H13.1122ZM13.3364 3.84131V3.74131V3.84131ZM9.00018 11.5693C8.66277 11.5693 8.32867 11.5029 8.01694 11.3737L7.9404 11.5585C8.2764 11.6977 8.63651 11.7693 9.00018 11.7693V11.5693ZM8.01694 11.3737C7.70522 11.2446 7.42197 11.0554 7.18339 10.8168L7.04197 10.9582C7.29912 11.2153 7.60441 11.4193 7.9404 11.5585L8.01694 11.3737ZM7.18339 10.8168C6.94481 10.5782 6.75555 10.2949 6.62643 9.98322L6.44165 10.0598C6.58082 10.3957 6.78481 10.701 7.04197 10.9582L7.18339 10.8168ZM6.62643 9.98322C6.49731 9.67149 6.43085 9.33738 6.43085 8.99998H6.23085C6.23085 9.36365 6.30248 9.72376 6.44165 10.0598L6.62643 9.98322ZM6.43085 8.99998C6.43085 8.66257 6.49731 8.32846 6.62643 8.01673L6.44165 7.9402C6.30248 8.27619 6.23085 8.6363 6.23085 8.99998H6.43085ZM6.62643 8.01673C6.75555 7.70501 6.94481 7.42177 7.18339 7.18318L7.04197 7.04176C6.78481 7.29892 6.58082 7.60421 6.44165 7.9402L6.62643 8.01673ZM7.18339 7.18318C7.42197 6.9446 7.70522 6.75534 8.01694 6.62622L7.9404 6.44144C7.60441 6.58062 7.29912 6.7846 7.04197 7.04176L7.18339 7.18318ZM8.01694 6.62622C8.32867 6.4971 8.66277 6.43064 9.00018 6.43064V6.23064C8.63651 6.23064 8.2764 6.30227 7.9404 6.44144L8.01694 6.62622ZM9.00018 6.43064C9.68161 6.43064 10.3351 6.70134 10.817 7.18318L10.9584 7.04176C10.439 6.52241 9.73465 6.23064 9.00018 6.23064V6.43064ZM10.817 7.18318C11.2988 7.66503 11.5695 8.31855 11.5695 8.99998H11.7695C11.7695 8.2655 11.4777 7.56111 10.9584 7.04176L10.817 7.18318ZM11.5695 8.99998C11.5695 9.68141 11.2988 10.3349 10.817 10.8168L10.9584 10.9582C11.4777 10.4388 11.7695 9.73445 11.7695 8.99998H11.5695ZM10.817 10.8168C10.3351 11.2986 9.68161 11.5693 9.00018 11.5693V11.7693C9.73465 11.7693 10.439 11.4775 10.9584 10.9582L10.817 10.8168ZM9.00018 4.78798C7.88309 4.78798 6.81175 5.23174 6.02185 6.02164L6.16327 6.16306C6.91567 5.41067 7.93613 4.98798 9.00018 4.98798V4.78798ZM6.02185 6.02164C5.23195 6.81154 4.78818 7.88288 4.78818 8.99998H4.98818C4.98818 7.93593 5.41087 6.91546 6.16327 6.16306L6.02185 6.02164ZM4.78818 8.99998C4.78818 10.1171 5.23195 11.1884 6.02185 11.9783L6.16327 11.8369C5.41087 11.0845 4.98818 10.064 4.98818 8.99998H4.78818ZM6.02185 11.9783C6.81175 12.7682 7.88309 13.212 9.00018 13.212V13.012C7.93613 13.012 6.91567 12.5893 6.16327 11.8369L6.02185 11.9783ZM9.00018 13.212C10.1173 13.212 11.1886 12.7682 11.9785 11.9783L11.8371 11.8369C11.0847 12.5893 10.0642 13.012 9.00018 13.012V13.212ZM11.9785 11.9783C12.7684 11.1884 13.2122 10.1171 13.2122 8.99998H13.0122C13.0122 10.064 12.5895 11.0845 11.8371 11.8369L11.9785 11.9783ZM13.2122 8.99998C13.2122 7.88288 12.7684 6.81154 11.9785 6.02164L11.8371 6.16306C12.5895 6.91546 13.0122 7.93593 13.0122 8.99998H13.2122ZM11.9785 6.02164C11.1886 5.23174 10.1173 4.78798 9.00018 4.78798V4.98798C10.0642 4.98798 11.0847 5.41067 11.8371 6.16306L11.9785 6.02164ZM14.2084 4.81331C14.2084 5.04458 14.1166 5.26637 13.953 5.42991L14.0945 5.57133C14.2955 5.37029 14.4084 5.09762 14.4084 4.81331H14.2084ZM13.953 5.42991C13.7895 5.59344 13.5677 5.68531 13.3364 5.68531V5.88531C13.6208 5.88531 13.8934 5.77237 14.0945 5.57133L13.953 5.42991ZM13.3364 5.68531C13.1052 5.68531 12.8834 5.59344 12.7199 5.42991L12.5784 5.57133C12.7795 5.77237 13.0521 5.88531 13.3364 5.88531V5.68531ZM12.7199 5.42991C12.5563 5.26637 12.4644 5.04458 12.4644 4.81331H12.2644C12.2644 5.09762 12.3774 5.37029 12.5784 5.57133L12.7199 5.42991ZM12.4644 4.81331C12.4644 4.58204 12.5563 4.36024 12.7199 4.19671L12.5784 4.05529C12.3774 4.25633 12.2644 4.529 12.2644 4.81331H12.4644ZM12.7199 4.19671C12.8834 4.03318 13.1052 3.94131 13.3364 3.94131V3.74131C13.0521 3.74131 12.7795 3.85425 12.5784 4.05529L12.7199 4.19671ZM13.3364 3.94131C13.5677 3.94131 13.7895 4.03318 13.953 4.19671L14.0945 4.05529C13.8934 3.85425 13.6208 3.74131 13.3364 3.74131V3.94131ZM13.953 4.19671C14.1166 4.36024 14.2084 4.58204 14.2084 4.81331H14.4084C14.4084 4.529 14.2955 4.25633 14.0945 4.05529L13.953 4.19671Z" fill="black" style="fill:black;fill-opacity:1;" mask="url(#path-2-outside-2_755_828)"/>
</g>
</g>
</g>
</svg>
