<?xml version="1.0" standalone="no"?>
<!DOCTYPE svg PUBLIC "-//W3C//DTD SVG 20010904//EN"
 "http://www.w3.org/TR/2001/REC-SVG-20010904/DTD/svg10.dtd">
<svg version="1.0" xmlns="http://www.w3.org/2000/svg"
 width="447.000000pt" height="447.000000pt" viewBox="0 0 447.000000 447.000000"
 preserveAspectRatio="xMidYMid meet">
<metadata>
Created by potrace 1.14, written by Peter Selinger 2001-2017
</metadata>
<g transform="translate(0.000000,447.000000) scale(0.100000,-0.100000)"
fill="#000000" stroke="none">
<path d="M0 4035 c0 -20 5 -25 25 -25 20 0 25 5 25 25 0 20 -5 25 -25 25 -20
0 -25 -5 -25 -25z"/>
<path d="M190 3915 c0 -20 5 -25 25 -25 20 0 25 5 25 25 0 20 -5 25 -25 25
-20 0 -25 -5 -25 -25z"/>
<path d="M190 3795 c0 -20 5 -25 25 -25 20 0 25 5 25 25 0 20 -5 25 -25 25
-20 0 -25 -5 -25 -25z"/>
<path d="M405 3768 c1 -17 9 -24 27 -26 21 -3 26 1 26 22 0 22 -5 26 -28 26
-21 0 -26 -4 -25 -22z"/>
<path d="M350 3716 c0 -17 7 -25 25 -28 22 -5 25 -2 25 23 0 24 -4 29 -25 29
-20 0 -25 -5 -25 -24z"/>
<path d="M620 3671 c0 -23 36 -35 44 -14 10 26 6 33 -19 33 -18 0 -25 -5 -25
-19z"/>
<path d="M532 3633 c2 -20 8 -28 23 -28 31 0 28 49 -3 53 -20 3 -23 0 -20 -25z"/>
<path d="M810 3625 c0 -23 4 -26 28 -23 19 2 27 9 27 23 0 14 -8 21 -27 23
-24 3 -28 0 -28 -23z"/>
<path d="M360 3604 c0 -19 5 -24 25 -24 20 0 25 5 25 24 0 18 -5 24 -25 24
-20 0 -25 -6 -25 -24z"/>
<path d="M1000 3586 c0 -24 23 -41 41 -30 5 3 9 16 9 30 0 19 -5 24 -25 24
-20 0 -25 -5 -25 -24z"/>
<path d="M710 3575 c0 -20 4 -24 23 -21 13 2 23 11 25 24 3 18 -2 22 -22 22
-21 0 -26 -5 -26 -25z"/>
<path d="M490 3561 c0 -22 4 -28 18 -26 9 2 20 4 25 4 4 1 7 12 7 26 0 20 -5
25 -25 25 -21 0 -25 -5 -25 -29z"/>
<path d="M880 3534 c0 -22 4 -25 28 -22 20 2 27 9 28 26 1 18 -4 22 -27 22
-24 0 -29 -4 -29 -26z"/>
<path d="M1180 3531 c0 -11 6 -21 13 -24 20 -7 37 4 37 24 0 14 -7 19 -25 19
-18 0 -25 -5 -25 -19z"/>
<path d="M640 3517 c0 -30 45 -36 53 -7 6 24 0 30 -30 30 -17 0 -23 -6 -23
-23z"/>
<path d="M1060 3489 c0 -24 4 -29 25 -29 20 0 25 5 25 24 0 17 -7 25 -25 28
-22 5 -25 2 -25 -23z"/>
<path d="M1332 3488 c2 -12 11 -24 21 -26 14 -3 18 1 15 20 -2 12 -11 24 -21
26 -14 3 -18 -1 -15 -20z"/>
<path d="M800 3475 c0 -20 5 -25 25 -25 20 0 25 5 25 25 0 20 -5 25 -25 25
-20 0 -25 -5 -25 -25z"/>
<path d="M510 3455 c0 -18 5 -25 19 -25 20 0 31 17 24 38 -3 6 -13 12 -24 12
-14 0 -19 -7 -19 -25z"/>
<path d="M960 3435 c0 -20 5 -25 25 -25 20 0 25 5 25 25 0 20 -5 25 -25 25
-20 0 -25 -5 -25 -25z"/>
<path d="M1228 3454 c-14 -13 6 -44 28 -44 19 0 24 5 24 25 0 20 -5 25 -23 25
-13 0 -26 -3 -29 -6z"/>
<path d="M620 3426 c0 -32 44 -31 48 2 3 18 -1 22 -22 22 -21 0 -26 -5 -26
-24z"/>
<path d="M772 3423 c-31 -6 -27 -47 6 -51 19 -3 22 1 22 27 0 17 -1 30 -2 30
-2 -1 -13 -4 -26 -6z"/>
<path d="M1374 3398 c2 -32 26 -35 26 -4 0 15 -6 26 -14 26 -7 0 -13 -9 -12
-22z"/>
<path d="M1120 3385 c0 -23 4 -26 28 -23 19 2 27 9 27 23 0 14 -8 21 -27 23
-24 3 -28 0 -28 -23z"/>
<path d="M897 3383 c-4 -3 -7 -15 -7 -25 0 -23 48 -25 57 -2 9 23 -32 45 -50
27z"/>
<path d="M1280 3335 c0 -29 34 -36 44 -9 10 27 7 34 -19 34 -20 0 -25 -5 -25
-25z"/>
<path d="M1040 3320 c0 -26 3 -29 25 -28 21 2 25 7 23 30 -2 22 -7 28 -25 28
-19 0 -23 -5 -23 -30z"/>
<path d="M630 3315 c0 -20 5 -25 25 -25 20 0 25 5 25 25 0 20 -5 25 -25 25
-20 0 -25 -5 -25 -25z"/>
<path d="M732 3303 c2 -22 9 -29 31 -31 24 -3 27 0 27 27 0 28 -3 31 -31 31
-27 0 -30 -3 -27 -27z"/>
<path d="M4415 3322 c-3 -3 -5 -16 -5 -29 0 -19 5 -23 30 -23 25 0 30 4 30 24
0 17 -7 25 -25 28 -13 3 -27 3 -30 0z"/>
<path d="M1412 3295 c2 -16 8 -25 19 -25 11 0 17 8 17 25 0 18 -6 25 -19 25
-14 0 -18 -7 -17 -25z"/>
<path d="M4280 3291 c0 -18 5 -28 13 -27 23 3 37 17 37 37 0 14 -7 19 -25 19
-21 0 -25 -5 -25 -29z"/>
<path d="M860 3275 c0 -18 5 -25 20 -25 15 0 20 7 20 25 0 18 -5 25 -20 25
-15 0 -20 -7 -20 -25z"/>
<path d="M1190 3275 c0 -20 5 -25 25 -25 20 0 25 5 25 25 0 20 -5 25 -25 25
-20 0 -25 -5 -25 -25z"/>
<path d="M4108 3288 c-8 -21 2 -38 23 -38 14 0 19 7 19 25 0 18 -5 25 -19 25
-10 0 -21 -6 -23 -12z"/>
<path d="M3910 3265 c0 -20 5 -25 24 -25 24 0 41 23 30 41 -3 5 -16 9 -30 9
-19 0 -24 -5 -24 -25z"/>
<path d="M3730 3254 c0 -19 5 -24 25 -24 20 0 25 5 25 24 0 18 -5 24 -25 24
-20 0 -25 -6 -25 -24z"/>
<path d="M980 3242 c0 -26 3 -28 29 -24 39 6 39 46 -1 50 -25 3 -28 0 -28 -26z"/>
<path d="M1330 3235 c0 -20 5 -25 25 -25 20 0 25 5 25 25 0 20 -5 25 -25 25
-20 0 -25 -5 -25 -25z"/>
<path d="M3560 3234 c0 -21 4 -25 23 -22 14 2 23 11 25 26 3 18 -1 22 -22 22
-21 0 -26 -5 -26 -26z"/>
<path d="M3400 3225 c0 -20 5 -25 25 -25 20 0 25 5 25 25 0 20 -5 25 -25 25
-20 0 -25 -5 -25 -25z"/>
<path d="M3270 3214 c0 -33 33 -30 38 4 3 17 -2 22 -17 22 -16 0 -21 -6 -21
-26z"/>
<path d="M1120 3205 c0 -29 34 -36 44 -9 10 27 7 34 -19 34 -20 0 -25 -5 -25
-25z"/>
<path d="M1467 3224 c-4 -4 -7 -18 -7 -31 0 -28 23 -27 28 1 4 20 -11 40 -21
30z"/>
<path d="M4120 3203 c0 -13 7 -26 15 -30 20 -7 24 -3 27 27 2 19 -2 25 -19 26
-18 1 -23 -4 -23 -23z"/>
<path d="M4240 3205 c0 -20 5 -25 25 -25 20 0 25 5 25 25 0 20 -5 25 -25 25
-20 0 -25 -5 -25 -25z"/>
<path d="M3976 3212 c-9 -8 -7 -42 2 -43 4 0 15 -2 25 -4 25 -5 23 41 -2 48
-11 3 -22 2 -25 -1z"/>
<path d="M740 3185 c0 -20 5 -25 25 -25 20 0 25 5 25 25 0 20 -5 25 -25 25
-20 0 -25 -5 -25 -25z"/>
<path d="M846 3187 c-19 -14 -9 -34 19 -39 14 -2 21 3 23 18 4 26 -20 37 -42
21z"/>
<path d="M3657 3194 c-4 -4 -7 -16 -7 -26 0 -13 8 -18 30 -18 23 0 30 4 30 20
0 11 -4 20 -9 20 -5 0 -16 2 -23 5 -8 3 -17 2 -21 -1z"/>
<path d="M3810 3180 c0 -14 7 -20 24 -20 23 0 41 22 29 34 -4 3 -17 6 -30 6
-16 0 -23 -6 -23 -20z"/>
<path d="M1250 3164 c0 -21 4 -25 23 -22 14 2 23 11 25 26 3 18 -1 22 -22 22
-21 0 -26 -5 -26 -26z"/>
<path d="M950 3148 c0 -23 4 -28 26 -28 22 0 25 4 22 27 -2 19 -9 27 -25 28
-19 1 -23 -3 -23 -27z"/>
<path d="M3360 3150 c0 -23 5 -30 19 -30 20 0 37 32 26 50 -3 5 -15 10 -26 10
-14 0 -19 -7 -19 -30z"/>
<path d="M3500 3155 c0 -20 5 -25 25 -25 20 0 25 5 25 25 0 20 -5 25 -25 25
-20 0 -25 -5 -25 -25z"/>
<path d="M3242 3143 c2 -17 9 -28 18 -28 9 0 16 11 18 28 3 22 -1 27 -18 27
-17 0 -21 -5 -18 -27z"/>
<path d="M1387 3154 c-4 -4 -7 -18 -7 -31 0 -21 4 -24 28 -21 21 2 27 8 27 28
0 18 -6 26 -20 28 -12 2 -24 0 -28 -4z"/>
<path d="M1063 3123 c2 -22 8 -29 28 -31 23 -3 26 1 27 27 1 28 -3 31 -28 31
-25 0 -29 -3 -27 -27z"/>
<path d="M3860 3105 c0 -20 5 -25 25 -25 20 0 25 5 25 25 0 20 -5 25 -25 25
-20 0 -25 -5 -25 -25z"/>
<path d="M3980 3104 c0 -22 4 -25 28 -22 19 2 28 9 30 26 3 19 -1 22 -27 22
-27 0 -31 -4 -31 -26z"/>
<path d="M4095 3113 c2 -10 4 -20 4 -23 1 -3 10 -6 20 -6 12 0 21 9 24 23 4
20 0 23 -24 23 -21 0 -26 -4 -24 -17z"/>
<path d="M1190 3093 c0 -18 5 -23 26 -23 20 0 25 4 22 22 -5 32 -48 33 -48 1z"/>
<path d="M1510 3094 c0 -16 5 -24 13 -22 17 6 18 48 1 48 -8 0 -14 -11 -14
-26z"/>
<path d="M3580 3089 c0 -36 44 -34 48 2 2 20 -2 24 -23 24 -20 0 -25 -5 -25
-26z"/>
<path d="M3720 3095 c0 -20 5 -25 25 -25 20 0 25 5 25 25 0 20 -5 25 -25 25
-20 0 -25 -5 -25 -25z"/>
<path d="M3449 3100 c-1 -5 -2 -16 -3 -22 -2 -15 13 -28 32 -28 7 0 12 13 12
30 0 23 -4 30 -20 30 -11 0 -21 -4 -21 -10z"/>
<path d="M3310 3075 c0 -23 4 -26 28 -23 19 2 27 9 27 23 0 14 -8 21 -27 23
-24 3 -28 0 -28 -23z"/>
<path d="M3210 3065 c0 -16 6 -25 15 -25 9 0 15 9 15 25 0 16 -6 25 -15 25 -9
0 -15 -9 -15 -25z"/>
<path d="M830 3055 c0 -21 5 -25 30 -25 25 0 30 4 30 25 0 21 -5 25 -30 25
-25 0 -30 -4 -30 -25z"/>
<path d="M1310 3055 c0 -20 5 -25 25 -25 20 0 25 5 25 25 0 20 -5 25 -25 25
-20 0 -25 -5 -25 -25z"/>
<path d="M930 3045 c0 -20 5 -25 25 -25 20 0 25 5 25 25 0 20 -5 25 -25 25
-20 0 -25 -5 -25 -25z"/>
<path d="M1030 3025 c0 -20 5 -25 25 -25 20 0 25 5 25 25 0 20 -5 25 -25 25
-20 0 -25 -5 -25 -25z"/>
<path d="M1436 3041 c-10 -16 5 -41 25 -41 14 0 19 7 19 25 0 18 -5 25 -19 25
-11 0 -22 -4 -25 -9z"/>
<path d="M3773 3043 c-7 -3 -13 -13 -13 -24 0 -14 7 -19 25 -19 18 0 25 5 25
19 0 20 -17 31 -37 24z"/>
<path d="M3872 3028 c2 -15 11 -24 26 -26 18 -3 22 1 22 22 0 21 -5 26 -26 26
-21 0 -25 -4 -22 -22z"/>
<path d="M3970 3025 c0 -21 5 -25 30 -25 25 0 30 4 30 25 0 21 -5 25 -30 25
-25 0 -30 -4 -30 -25z"/>
<path d="M3640 3015 c0 -20 5 -25 25 -25 20 0 25 5 25 25 0 20 -5 25 -25 25
-20 0 -25 -5 -25 -25z"/>
<path d="M1140 3005 c0 -20 5 -25 25 -25 20 0 25 5 25 25 0 20 -5 25 -25 25
-20 0 -25 -5 -25 -25z"/>
<path d="M3390 3004 c0 -22 4 -25 27 -22 18 2 27 10 29 26 3 19 -1 22 -26 22
-26 0 -30 -4 -30 -26z"/>
<path d="M3520 3011 c0 -16 6 -21 26 -21 33 0 30 33 -4 38 -17 3 -22 -2 -22
-17z"/>
<path d="M1550 2994 c0 -16 5 -24 13 -22 17 6 18 48 1 48 -8 0 -14 -11 -14
-26z"/>
<path d="M3180 2990 c0 -20 5 -30 15 -30 10 0 15 10 15 30 0 20 -5 30 -15 30
-10 0 -15 -10 -15 -30z"/>
<path d="M3270 3001 c0 -20 25 -35 41 -25 5 3 9 14 9 25 0 14 -7 19 -25 19
-18 0 -25 -5 -25 -19z"/>
<path d="M1260 2975 c0 -18 5 -25 20 -25 15 0 20 7 20 25 0 18 -5 25 -20 25
-15 0 -20 -7 -20 -25z"/>
<path d="M1370 2950 c0 -27 3 -31 23 -28 31 4 31 52 -1 56 -19 3 -22 -1 -22
-28z"/>
<path d="M3787 2963 c-4 -3 -7 -15 -7 -25 0 -13 7 -18 25 -18 29 0 36 34 9 44
-19 7 -19 7 -27 -1z"/>
<path d="M3880 2946 c0 -21 5 -26 26 -26 21 0 25 4 22 23 -2 14 -11 23 -25 25
-19 3 -23 -1 -23 -22z"/>
<path d="M3460 2936 c0 -21 5 -26 24 -26 32 0 31 44 -1 48 -19 3 -23 -1 -23
-22z"/>
<path d="M3570 2935 c0 -20 5 -25 25 -25 20 0 25 5 25 25 0 20 -5 25 -25 25
-20 0 -25 -5 -25 -25z"/>
<path d="M3680 2937 c0 -18 6 -23 25 -23 19 0 25 5 25 23 0 18 -6 23 -25 23
-19 0 -25 -5 -25 -23z"/>
<path d="M920 2925 c0 -20 5 -25 25 -25 20 0 25 5 25 25 0 20 -5 25 -25 25
-20 0 -25 -5 -25 -25z"/>
<path d="M3237 2944 c-4 -4 -7 -16 -7 -26 0 -15 6 -19 28 -16 19 2 27 9 27 23
0 20 -33 33 -48 19z"/>
<path d="M3350 2924 c0 -21 4 -25 23 -22 32 4 33 48 1 48 -19 0 -24 -5 -24
-26z"/>
<path d="M1010 2915 c0 -20 5 -25 25 -25 20 0 25 5 25 25 0 20 -5 25 -25 25
-20 0 -25 -5 -25 -25z"/>
<path d="M1482 2918 c4 -33 48 -34 48 -2 0 19 -5 24 -26 24 -21 0 -25 -4 -22
-22z"/>
<path d="M3143 2915 c0 -18 5 -25 18 -25 14 0 19 7 19 25 0 18 -5 25 -19 25
-13 0 -18 -7 -18 -25z"/>
<path d="M1110 2905 c0 -18 5 -25 18 -25 25 0 31 7 25 31 -8 29 -43 25 -43 -6z"/>
<path d="M1587 2901 c-3 -12 1 -22 10 -25 22 -9 23 -8 23 19 0 30 -25 34 -33
6z"/>
<path d="M1210 2885 c0 -20 5 -25 25 -25 20 0 25 5 25 25 0 20 -5 25 -25 25
-20 0 -25 -5 -25 -25z"/>
<path d="M1310 2865 c0 -21 5 -25 29 -25 25 0 28 3 23 25 -3 18 -11 25 -28 25
-19 0 -24 -5 -24 -25z"/>
<path d="M3806 2882 c-3 -3 -6 -14 -6 -24 0 -13 7 -18 26 -18 20 0 25 4 22 22
-3 20 -30 33 -42 20z"/>
<path d="M3410 2855 c0 -20 5 -25 25 -25 20 0 25 5 25 25 0 20 -5 25 -25 25
-20 0 -25 -5 -25 -25z"/>
<path d="M3510 2855 c0 -20 5 -25 25 -25 20 0 25 5 25 25 0 20 -5 25 -25 25
-20 0 -25 -5 -25 -25z"/>
<path d="M3612 2858 c2 -15 10 -23 23 -23 13 0 21 8 23 23 3 18 -1 22 -23 22
-22 0 -26 -4 -23 -22z"/>
<path d="M3710 2860 c0 -15 7 -20 25 -20 18 0 25 5 25 20 0 15 -7 20 -25 20
-18 0 -25 -5 -25 -20z"/>
<path d="M1415 2853 c2 -10 4 -21 4 -25 1 -5 12 -8 26 -8 20 0 25 5 25 25 0
21 -5 25 -29 25 -22 0 -28 -4 -26 -17z"/>
<path d="M3120 2845 c0 -16 6 -25 15 -25 9 0 15 9 15 25 0 16 -6 25 -15 25 -9
0 -15 -9 -15 -25z"/>
<path d="M3200 2847 c0 -17 6 -23 25 -25 21 -1 25 3 25 23 0 20 -5 25 -25 25
-19 0 -25 -5 -25 -23z"/>
<path d="M3300 2847 c0 -20 4 -23 30 -19 21 3 30 10 30 23 0 14 -7 19 -30 19
-25 0 -30 -4 -30 -23z"/>
<path d="M990 2810 c0 -26 4 -30 26 -30 22 0 25 4 22 27 -2 18 -10 27 -25 29
-20 3 -23 -1 -23 -26z"/>
<path d="M1525 2815 c0 -20 5 -25 25 -25 20 0 25 5 26 25 2 21 -3 25 -25 25
-21 0 -26 -5 -26 -25z"/>
<path d="M1077 2823 c-2 -5 -2 -14 -1 -20 1 -7 2 -17 3 -23 0 -5 12 -10 26
-10 21 0 25 5 25 30 0 25 -4 30 -24 30 -14 0 -27 -3 -29 -7z"/>
<path d="M1630 2801 c0 -17 5 -31 10 -31 6 0 10 11 10 24 0 14 -4 28 -10 31
-6 4 -10 -7 -10 -24z"/>
<path d="M1170 2790 c0 -25 4 -30 25 -30 21 0 25 5 25 30 0 25 -4 30 -25 30
-21 0 -25 -5 -25 -30z"/>
<path d="M3560 2780 c0 -24 3 -27 25 -22 18 3 25 11 25 27 0 17 -6 23 -25 23
-21 0 -25 -5 -25 -28z"/>
<path d="M3650 2785 c0 -20 5 -25 25 -25 20 0 25 5 25 25 0 20 -5 25 -25 25
-20 0 -25 -5 -25 -25z"/>
<path d="M3737 2804 c-4 -4 -7 -16 -7 -26 0 -13 8 -18 31 -18 26 0 30 3 27 23
-3 22 -36 36 -51 21z"/>
<path d="M1270 2775 c0 -18 5 -25 19 -25 24 0 33 13 25 34 -10 27 -44 20 -44
-9z"/>
<path d="M3270 2775 c0 -20 5 -25 25 -25 20 0 25 5 25 25 0 20 -5 25 -25 25
-20 0 -25 -5 -25 -25z"/>
<path d="M3370 2775 c0 -20 5 -25 24 -25 18 0 23 5 21 18 -2 9 -4 20 -4 25 -1
4 -10 7 -21 7 -15 0 -20 -7 -20 -25z"/>
<path d="M3460 2775 c0 -21 5 -25 30 -25 26 0 29 3 28 25 -2 20 -8 25 -30 25
-23 0 -28 -4 -28 -25z"/>
<path d="M3100 2765 c0 -16 6 -25 15 -25 9 0 15 9 15 25 0 16 -6 25 -15 25 -9
0 -15 -9 -15 -25z"/>
<path d="M3177 2783 c-6 -13 -3 -33 6 -33 4 0 14 0 22 0 8 0 15 9 15 20 0 13
-7 20 -19 20 -11 0 -22 -3 -24 -7z"/>
<path d="M1360 2755 c0 -20 5 -25 25 -25 20 0 25 5 25 25 0 20 -5 25 -25 25
-20 0 -25 -5 -25 -25z"/>
<path d="M1473 2763 c-7 -3 -13 -15 -13 -27 0 -32 51 -31 56 0 4 22 -18 35
-43 27z"/>
<path d="M1560 2721 c0 -19 5 -31 13 -30 48 2 61 52 15 57 -25 3 -28 0 -28
-27z"/>
<path d="M1660 2705 c0 -16 6 -25 15 -25 9 0 15 9 15 25 0 16 -6 25 -15 25 -9
0 -15 -9 -15 -25z"/>
<path d="M3247 2724 c-13 -13 -7 -42 9 -48 28 -11 35 -6 32 21 -3 27 -26 41
-41 27z"/>
<path d="M3330 2706 c0 -22 16 -36 41 -36 5 0 9 14 9 30 0 25 -4 30 -25 30
-20 0 -25 -5 -25 -24z"/>
<path d="M3420 2705 c0 -20 5 -25 25 -25 20 0 25 5 25 25 0 20 -5 25 -25 25
-20 0 -25 -5 -25 -25z"/>
<path d="M3510 2705 c0 -20 5 -25 25 -25 20 0 25 5 25 25 0 20 -5 25 -25 25
-20 0 -25 -5 -25 -25z"/>
<path d="M3600 2705 c0 -20 5 -25 25 -25 20 0 25 5 25 25 0 20 -5 25 -25 25
-20 0 -25 -5 -25 -25z"/>
<path d="M3689 2728 c-1 -2 -3 -13 -4 -25 -2 -18 3 -23 21 -23 19 0 24 5 24
25 0 18 -5 25 -20 25 -11 0 -21 -1 -21 -2z"/>
<path d="M1050 2695 c0 -39 51 -32 58 8 2 13 -4 17 -28 17 -25 0 -30 -4 -30
-25z"/>
<path d="M3070 2695 c0 -18 5 -25 20 -25 15 0 20 7 20 25 0 18 -5 25 -20 25
-15 0 -20 -7 -20 -25z"/>
<path d="M3150 2695 c0 -20 5 -25 25 -25 20 0 25 5 25 25 0 20 -5 25 -25 25
-20 0 -25 -5 -25 -25z"/>
<path d="M1134 2691 c0 -14 9 -21 28 -23 24 -4 28 -1 28 19 0 19 -5 23 -28 23
-21 0 -28 -5 -28 -19z"/>
<path d="M1225 2702 c-3 -3 -5 -14 -5 -24 0 -13 8 -18 30 -18 29 0 38 13 22
36 -7 11 -38 15 -47 6z"/>
<path d="M1310 2667 c0 -18 5 -22 28 -22 20 1 28 7 30 23 3 19 -2 22 -27 22
-26 0 -31 -4 -31 -23z"/>
<path d="M1410 2655 c0 -20 5 -25 25 -25 20 0 25 5 25 25 0 20 -5 25 -25 25
-20 0 -25 -5 -25 -25z"/>
<path d="M1500 2640 c0 -25 4 -30 25 -30 21 0 25 5 25 30 0 25 -4 30 -25 30
-21 0 -25 -5 -25 -30z"/>
<path d="M3408 2653 c-11 -3 -18 -14 -18 -29 0 -19 5 -24 25 -24 20 0 25 5 25
24 0 28 -7 34 -32 29z"/>
<path d="M3477 2653 c-4 -3 -7 -17 -7 -30 0 -21 4 -24 28 -21 21 2 28 9 30 31
3 23 0 27 -21 27 -13 0 -27 -3 -30 -7z"/>
<path d="M3560 2630 c0 -25 4 -30 25 -30 21 0 25 5 25 30 0 25 -4 30 -25 30
-21 0 -25 -5 -25 -30z"/>
<path d="M3640 2630 c0 -25 4 -30 25 -30 21 0 25 5 25 30 0 25 -4 30 -25 30
-21 0 -25 -5 -25 -30z"/>
<path d="M1600 2624 c0 -21 4 -25 23 -22 32 4 33 48 1 48 -19 0 -24 -5 -24
-26z"/>
<path d="M3060 2620 c0 -35 25 -42 35 -10 8 24 -1 40 -21 40 -9 0 -14 -11 -14
-30z"/>
<path d="M3130 2626 c0 -15 7 -26 19 -29 25 -6 31 0 31 30 0 18 -5 23 -25 23
-20 0 -25 -5 -25 -24z"/>
<path d="M3214 2625 c-2 -21 2 -25 27 -25 24 0 29 4 29 25 0 21 -5 25 -27 25
-23 0 -28 -5 -29 -25z"/>
<path d="M3300 2625 c0 -21 5 -25 29 -25 24 0 29 4 29 25 0 21 -5 25 -29 25
-24 0 -29 -4 -29 -25z"/>
<path d="M1690 2616 c0 -15 6 -26 14 -26 17 0 16 42 -1 48 -8 2 -13 -6 -13
-22z"/>
<path d="M1100 2591 c0 -10 9 -21 19 -24 24 -6 31 0 31 25 0 13 -7 18 -25 18
-18 0 -25 -5 -25 -19z"/>
<path d="M1187 2603 c-9 -20 0 -38 21 -41 12 -2 22 0 23 5 0 4 2 16 4 26 2 12
-3 17 -20 17 -13 0 -26 -3 -28 -7z"/>
<path d="M1270 2575 c0 -20 5 -25 25 -25 20 0 25 5 25 25 0 20 -5 25 -25 25
-20 0 -25 -5 -25 -25z"/>
<path d="M1360 2565 c0 -20 5 -25 25 -25 20 0 25 5 25 25 0 20 -5 25 -25 25
-20 0 -25 -5 -25 -25z"/>
<path d="M1448 2555 c3 -16 11 -25 23 -25 14 0 19 7 19 25 0 20 -5 25 -24 25
-19 0 -22 -4 -18 -25z"/>
<path d="M3205 2572 c-3 -3 -5 -16 -5 -29 0 -16 6 -23 20 -23 15 0 20 7 20 28
0 26 -20 39 -35 24z"/>
<path d="M3280 2549 c0 -21 5 -26 23 -25 16 1 23 8 25 28 3 24 0 28 -22 26
-21 -2 -26 -8 -26 -29z"/>
<path d="M3360 2556 c0 -27 29 -44 42 -24 16 26 9 48 -17 48 -20 0 -25 -5 -25
-24z"/>
<path d="M3450 2551 c0 -18 5 -28 13 -27 41 6 50 56 10 56 -19 0 -23 -5 -23
-29z"/>
<path d="M3530 2554 c0 -21 4 -25 23 -22 14 2 23 11 25 26 3 18 -1 22 -22 22
-21 0 -26 -5 -26 -26z"/>
<path d="M3610 2555 c0 -20 5 -25 25 -25 20 0 25 5 25 25 0 20 -5 25 -25 25
-20 0 -25 -5 -25 -25z"/>
<path d="M1535 2548 c1 -15 9 -24 23 -26 18 -3 22 2 22 22 0 21 -5 26 -23 26
-18 0 -23 -5 -22 -22z"/>
<path d="M3040 2545 c0 -17 5 -25 18 -25 12 0 18 8 20 25 1 19 -3 25 -18 25
-15 0 -20 -7 -20 -25z"/>
<path d="M3110 2545 c0 -20 5 -25 25 -25 20 0 25 5 25 25 0 20 -5 25 -25 25
-20 0 -25 -5 -25 -25z"/>
<path d="M1622 2538 c2 -17 11 -24 31 -26 23 -3 27 0 27 22 0 22 -4 26 -31 26
-26 0 -30 -3 -27 -22z"/>
<path d="M1710 2525 c0 -16 6 -25 15 -25 9 0 15 9 15 25 0 16 -6 25 -15 25 -9
0 -15 -9 -15 -25z"/>
<path d="M1146 2512 c-3 -3 -6 -16 -6 -29 0 -21 4 -24 28 -21 19 2 28 9 30 26
2 12 0 22 -5 23 -4 0 -16 2 -25 4 -9 2 -19 0 -22 -3z"/>
<path d="M1220 2485 c0 -21 5 -25 30 -25 26 0 29 3 28 25 -2 20 -8 25 -30 25
-23 0 -28 -4 -28 -25z"/>
<path d="M1307 2503 c-12 -25 0 -48 26 -51 24 -3 27 0 27 27 0 26 -4 31 -24
31 -14 0 -27 -3 -29 -7z"/>
<path d="M3420 2480 c0 -26 4 -30 26 -30 22 0 25 4 22 27 -2 18 -10 27 -25 29
-20 3 -23 -1 -23 -26z"/>
<path d="M3500 2481 c0 -27 4 -31 26 -31 22 0 25 4 22 28 -2 19 -9 28 -25 30
-20 3 -23 -1 -23 -27z"/>
<path d="M3580 2480 c0 -25 4 -30 25 -30 21 0 25 5 25 30 0 25 -4 30 -25 30
-21 0 -25 -5 -25 -30z"/>
<path d="M1390 2470 c0 -25 3 -29 23 -26 15 2 23 11 25 29 3 23 0 27 -22 27
-22 0 -26 -4 -26 -30z"/>
<path d="M3030 2474 c0 -33 33 -30 38 4 3 17 -2 22 -17 22 -16 0 -21 -6 -21
-26z"/>
<path d="M3100 2475 c0 -20 5 -25 25 -25 20 0 25 5 25 25 0 20 -5 25 -25 25
-20 0 -25 -5 -25 -25z"/>
<path d="M3180 2475 c0 -20 5 -25 25 -25 20 0 25 5 25 25 0 20 -5 25 -25 25
-20 0 -25 -5 -25 -25z"/>
<path d="M3260 2475 c0 -20 5 -25 25 -25 20 0 25 5 25 25 0 20 -5 25 -25 25
-20 0 -25 -5 -25 -25z"/>
<path d="M3340 2475 c0 -20 5 -25 25 -25 20 0 25 5 25 25 0 20 -5 25 -25 25
-20 0 -25 -5 -25 -25z"/>
<path d="M1470 2465 c0 -21 5 -25 30 -25 25 0 30 4 30 25 0 21 -5 25 -30 25
-25 0 -30 -4 -30 -25z"/>
<path d="M1560 2455 c0 -20 5 -25 25 -25 20 0 25 5 25 25 0 20 -5 25 -25 25
-20 0 -25 -5 -25 -25z"/>
<path d="M1663 2473 c-7 -3 -13 -16 -13 -29 0 -19 5 -24 25 -24 20 0 25 5 25
24 0 25 -15 36 -37 29z"/>
<path d="M1730 2435 c0 -26 24 -35 32 -12 7 18 -2 37 -18 37 -8 0 -14 -10 -14
-25z"/>
<path d="M3024 2415 c-9 -21 3 -45 21 -45 10 0 15 10 15 30 0 32 -26 43 -36
15z"/>
<path d="M3080 2400 c0 -28 3 -31 28 -28 21 2 27 8 27 28 0 20 -6 26 -27 28
-25 3 -28 0 -28 -28z"/>
<path d="M3160 2402 c0 -23 4 -29 18 -27 9 2 23 4 30 4 8 1 12 10 10 24 -2 16
-11 23 -30 25 -25 3 -28 0 -28 -26z"/>
<path d="M3240 2406 c0 -26 14 -36 43 -28 29 8 17 46 -15 50 -24 3 -28 0 -28
-22z"/>
<path d="M3322 2403 c2 -22 8 -28 28 -28 20 0 25 6 27 28 2 24 -2 27 -28 27
-27 0 -30 -3 -27 -27z"/>
<path d="M3400 2406 c0 -22 4 -26 31 -26 26 0 30 3 27 23 -2 16 -11 23 -30 25
-24 3 -28 0 -28 -22z"/>
<path d="M3480 2406 c0 -28 33 -41 51 -20 17 20 3 44 -26 44 -20 0 -25 -5 -25
-24z"/>
<path d="M3560 2405 c0 -20 5 -25 25 -25 20 0 25 5 25 25 0 20 -5 25 -25 25
-20 0 -25 -5 -25 -25z"/>
<path d="M1180 2395 c0 -20 5 -25 25 -25 20 0 25 5 25 25 0 20 -5 25 -25 25
-20 0 -25 -5 -25 -25z"/>
<path d="M1260 2395 c0 -20 5 -25 25 -25 26 0 29 7 19 34 -10 27 -44 20 -44
-9z"/>
<path d="M1332 2388 c2 -17 10 -23 31 -25 23 -1 27 2 27 23 0 20 -5 24 -31 24
-26 0 -30 -3 -27 -22z"/>
<path d="M1414 2386 c-1 -18 4 -25 22 -29 29 -5 34 0 34 30 0 18 -5 23 -27 23
-22 0 -28 -5 -29 -24z"/>
<path d="M1500 2375 c0 -20 5 -25 25 -25 20 0 25 5 25 25 0 20 -5 25 -25 25
-20 0 -25 -5 -25 -25z"/>
<path d="M1580 2373 c0 -23 5 -28 25 -29 16 -1 26 5 30 17 9 26 -2 39 -31 39
-20 0 -24 -5 -24 -27z"/>
<path d="M1666 2383 c-3 -3 -6 -15 -6 -25 0 -13 8 -18 31 -18 25 0 30 3 27 22
-3 20 -38 35 -52 21z"/>
<path d="M1750 2357 c0 -14 6 -24 15 -24 9 0 15 10 15 24 0 14 -6 23 -15 23
-9 0 -15 -9 -15 -23z"/>
<path d="M3086 2352 c-3 -3 -6 -16 -6 -29 0 -18 5 -23 25 -23 20 0 25 5 25 24
0 22 -31 42 -44 28z"/>
<path d="M3155 2351 c-3 -2 -5 -15 -5 -28 0 -19 5 -23 30 -23 26 0 30 4 30 28
0 23 -4 28 -25 28 -14 0 -28 -2 -30 -5z"/>
<path d="M3243 2353 c-7 -2 -13 -16 -13 -29 0 -22 4 -25 27 -22 22 2 28 8 27
28 0 25 -16 34 -41 23z"/>
<path d="M3310 2330 c0 -25 4 -30 24 -30 16 0 26 7 29 22 8 29 1 38 -29 38
-20 0 -24 -5 -24 -30z"/>
<path d="M3390 2330 c0 -25 4 -29 23 -28 18 2 24 9 25 30 2 24 -1 28 -23 28
-21 0 -25 -5 -25 -30z"/>
<path d="M3470 2330 c0 -25 4 -30 25 -30 21 0 25 5 25 30 0 25 -4 30 -25 30
-21 0 -25 -5 -25 -30z"/>
<path d="M3540 2330 c0 -25 4 -30 24 -30 23 0 36 16 36 46 0 9 -11 14 -30 14
-27 0 -30 -3 -30 -30z"/>
<path d="M3020 2325 c0 -16 6 -25 15 -25 9 0 15 9 15 25 0 16 -6 25 -15 25 -9
0 -15 -9 -15 -25z"/>
<path d="M1200 2305 c0 -21 5 -25 30 -25 25 0 30 4 30 25 0 21 -5 25 -30 25
-25 0 -30 -4 -30 -25z"/>
<path d="M1280 2300 c0 -25 4 -30 25 -30 21 0 25 5 25 30 0 25 -4 30 -25 30
-21 0 -25 -5 -25 -30z"/>
<path d="M1360 2300 c0 -25 4 -30 25 -30 21 0 25 5 25 30 0 25 -4 30 -25 30
-21 0 -25 -5 -25 -30z"/>
<path d="M1440 2295 c0 -20 5 -25 25 -25 20 0 25 5 25 25 0 20 -5 25 -25 25
-20 0 -25 -5 -25 -25z"/>
<path d="M1520 2290 c0 -25 4 -30 25 -30 21 0 25 5 25 30 0 25 -4 30 -25 30
-21 0 -25 -5 -25 -30z"/>
<path d="M1600 2285 c0 -20 5 -25 25 -25 20 0 25 5 25 25 0 20 -5 25 -25 25
-20 0 -25 -5 -25 -25z"/>
<path d="M1685 2290 c-9 -15 14 -40 31 -33 22 8 18 43 -5 43 -11 0 -23 -5 -26
-10z"/>
<path d="M1770 2275 c0 -14 5 -25 10 -25 6 0 10 11 10 25 0 14 -4 25 -10 25
-5 0 -10 -11 -10 -25z"/>
<path d="M3010 2254 c0 -33 33 -30 38 4 3 17 -2 22 -17 22 -16 0 -21 -6 -21
-26z"/>
<path d="M3070 2255 c0 -20 5 -25 24 -25 25 0 36 15 29 38 -3 6 -16 12 -29 12
-19 0 -24 -5 -24 -25z"/>
<path d="M3150 2255 c0 -20 5 -25 25 -25 20 0 25 5 25 25 0 20 -5 25 -25 25
-20 0 -25 -5 -25 -25z"/>
<path d="M3220 2268 c1 -42 52 -51 58 -10 3 19 -1 22 -27 22 -18 0 -31 -5 -31
-12z"/>
<path d="M3302 2258 c2 -17 10 -23 28 -23 18 0 26 6 28 23 3 19 -1 22 -28 22
-27 0 -31 -3 -28 -22z"/>
<path d="M3380 2255 c0 -20 5 -25 25 -25 20 0 25 5 25 25 0 20 -5 25 -25 25
-20 0 -25 -5 -25 -25z"/>
<path d="M3460 2255 c0 -18 5 -25 19 -25 20 0 31 17 24 38 -3 6 -13 12 -24 12
-14 0 -19 -7 -19 -25z"/>
<path d="M3530 2255 c0 -20 5 -25 25 -25 20 0 25 5 25 25 0 20 -5 25 -25 25
-20 0 -25 -5 -25 -25z"/>
<path d="M1224 2235 c-10 -25 3 -42 30 -42 20 0 26 4 26 22 0 33 -45 49 -56
20z"/>
<path d="M1300 2216 c0 -19 5 -23 27 -22 19 1 27 7 29 24 3 19 -1 22 -26 22
-25 0 -30 -4 -30 -24z"/>
<path d="M1380 2215 c0 -20 5 -25 25 -25 20 0 25 5 25 25 0 20 -5 25 -25 25
-20 0 -25 -5 -25 -25z"/>
<path d="M1460 2216 c0 -17 7 -25 25 -28 22 -5 25 -2 25 23 0 24 -4 29 -25 29
-20 0 -25 -5 -25 -24z"/>
<path d="M1542 2213 c2 -20 8 -28 23 -28 31 0 28 49 -3 53 -20 3 -23 0 -20
-25z"/>
<path d="M1620 2205 c0 -18 5 -25 19 -25 12 0 20 9 23 25 4 21 1 25 -18 25
-19 0 -24 -5 -24 -25z"/>
<path d="M1698 2205 c-5 -22 -2 -25 24 -25 23 0 29 4 24 16 -3 9 -6 20 -6 25
0 5 -8 9 -19 9 -12 0 -20 -9 -23 -25z"/>
<path d="M1779 2220 c-17 -11 -1 -52 19 -48 22 4 29 55 8 55 -8 0 -20 -4 -27
-7z"/>
<path d="M1859 2218 c-1 -2 -3 -13 -4 -25 -2 -18 3 -23 21 -23 19 0 24 5 24
25 0 18 -5 25 -20 25 -11 0 -21 -1 -21 -2z"/>
<path d="M1936 2212 c-3 -3 -6 -14 -6 -24 0 -13 7 -18 25 -18 18 0 25 5 25 19
0 18 -33 35 -44 23z"/>
<path d="M2012 2188 c4 -33 48 -34 48 -2 0 19 -5 24 -26 24 -21 0 -25 -4 -22
-22z"/>
<path d="M2080 2191 c0 -11 5 -23 10 -26 18 -11 50 6 50 26 0 14 -7 19 -30 19
-23 0 -30 -5 -30 -19z"/>
<path d="M2160 2185 c0 -20 5 -25 24 -25 17 0 25 7 28 25 5 22 2 25 -23 25
-24 0 -29 -4 -29 -25z"/>
<path d="M2240 2185 c0 -20 5 -25 25 -25 20 0 25 5 25 25 0 20 -5 25 -25 25
-20 0 -25 -5 -25 -25z"/>
<path d="M2310 2185 c0 -21 5 -25 30 -25 25 0 30 4 30 25 0 21 -5 25 -30 25
-25 0 -30 -4 -30 -25z"/>
<path d="M2390 2185 c0 -20 5 -25 25 -25 20 0 25 5 25 25 0 20 -5 25 -25 25
-20 0 -25 -5 -25 -25z"/>
<path d="M2469 2208 c-1 -2 -3 -13 -4 -25 -2 -19 3 -23 26 -23 24 0 29 4 29
25 0 20 -5 25 -25 25 -14 0 -26 -1 -26 -2z"/>
<path d="M2540 2185 c0 -20 5 -25 24 -25 27 0 43 35 19 44 -30 12 -43 6 -43
-19z"/>
<path d="M2618 2185 c-4 -21 -1 -25 18 -25 19 0 24 5 24 25 0 18 -5 25 -19 25
-12 0 -20 -9 -23 -25z"/>
<path d="M2690 2185 c0 -20 5 -25 25 -25 20 0 25 5 25 25 0 20 -5 25 -25 25
-20 0 -25 -5 -25 -25z"/>
<path d="M2770 2185 c0 -22 4 -26 23 -23 14 2 22 10 22 23 0 13 -8 21 -22 23
-19 3 -23 -1 -23 -23z"/>
<path d="M2840 2185 c0 -20 5 -25 25 -25 20 0 25 5 25 25 0 20 -5 25 -25 25
-20 0 -25 -5 -25 -25z"/>
<path d="M2912 2188 c2 -17 10 -23 27 -23 17 0 25 6 27 23 3 19 -1 22 -27 22
-26 0 -30 -3 -27 -22z"/>
<path d="M2990 2185 c0 -20 5 -25 25 -25 20 0 25 5 25 25 0 20 -5 25 -25 25
-20 0 -25 -5 -25 -25z"/>
<path d="M3070 2185 c0 -20 5 -25 25 -25 20 0 25 5 25 25 0 20 -5 25 -25 25
-20 0 -25 -5 -25 -25z"/>
<path d="M3140 2186 c0 -21 4 -25 30 -24 26 1 30 5 28 22 -2 15 -11 22 -30 24
-24 3 -28 0 -28 -22z"/>
<path d="M3222 2188 c2 -15 11 -24 26 -26 18 -3 22 1 22 22 0 21 -5 26 -26 26
-21 0 -25 -4 -22 -22z"/>
<path d="M3302 2188 c2 -15 11 -24 26 -26 18 -3 22 1 22 22 0 21 -5 26 -26 26
-21 0 -25 -4 -22 -22z"/>
<path d="M3370 2184 c0 -21 4 -25 23 -22 14 2 23 11 25 26 3 18 -1 22 -22 22
-21 0 -26 -5 -26 -26z"/>
<path d="M3450 2186 c0 -18 5 -23 25 -23 20 0 25 5 25 23 0 19 -5 24 -25 24
-20 0 -25 -5 -25 -24z"/>
<path d="M3522 2188 c4 -33 48 -34 48 -2 0 19 -5 24 -26 24 -21 0 -25 -4 -22
-22z"/>
<path d="M1240 2135 c0 -20 5 -25 25 -25 20 0 25 5 25 25 0 20 -5 25 -25 25
-20 0 -25 -5 -25 -25z"/>
<path d="M1310 2135 c0 -21 5 -25 30 -25 25 0 30 4 30 25 0 21 -5 25 -30 25
-25 0 -30 -4 -30 -25z"/>
<path d="M1390 2135 c0 -21 5 -25 30 -25 25 0 30 4 30 25 0 21 -5 25 -30 25
-25 0 -30 -4 -30 -25z"/>
<path d="M1470 2136 c0 -15 7 -26 19 -29 25 -6 31 0 31 30 0 18 -5 23 -25 23
-20 0 -25 -5 -25 -24z"/>
<path d="M1550 2130 c0 -25 4 -30 25 -30 21 0 25 5 25 30 0 25 -4 30 -25 30
-21 0 -25 -5 -25 -30z"/>
<path d="M1628 2135 c-6 -30 -2 -35 29 -35 20 0 24 4 21 27 -4 36 -44 43 -50
8z"/>
<path d="M1702 2124 c-2 -22 2 -25 26 -22 19 2 28 9 30 26 3 18 -1 22 -25 22
-24 0 -29 -5 -31 -26z"/>
<path d="M1780 2125 c0 -20 5 -25 25 -25 20 0 25 5 25 25 0 20 -5 25 -25 25
-20 0 -25 -5 -25 -25z"/>
<path d="M1862 2123 c2 -20 9 -28 23 -28 14 0 21 8 23 28 3 23 0 27 -23 27
-23 0 -26 -4 -23 -27z"/>
<path d="M1940 2120 c0 -27 3 -31 23 -28 16 2 22 10 22 28 0 18 -6 26 -22 28
-20 3 -23 -1 -23 -28z"/>
<path d="M2033 2140 c-33 -13 -31 -50 2 -50 21 0 25 5 25 30 0 17 -1 30 -2 29
-2 0 -13 -4 -25 -9z"/>
<path d="M2090 2115 c0 -20 5 -25 25 -25 20 0 25 5 25 25 0 20 -5 25 -25 25
-20 0 -25 -5 -25 -25z"/>
<path d="M2167 2133 c-4 -3 -7 -15 -7 -25 0 -13 8 -18 30 -18 26 0 29 3 28 25
-2 18 -8 25 -24 25 -11 0 -24 -3 -27 -7z"/>
<path d="M2240 2115 c0 -20 5 -25 25 -25 19 0 25 5 25 23 0 17 -6 23 -25 25
-21 1 -25 -3 -25 -23z"/>
<path d="M2322 2128 c-21 -21 -13 -38 18 -38 23 0 30 5 30 19 0 10 -7 22 -16
25 -20 8 -18 8 -32 -6z"/>
<path d="M2396 2132 c-3 -3 -6 -14 -6 -24 0 -12 7 -18 24 -18 29 0 38 10 26
30 -9 14 -35 22 -44 12z"/>
<path d="M2471 2127 c-21 -21 -12 -37 20 -37 25 0 30 3 27 22 -3 23 -30 32
-47 15z"/>
<path d="M2540 2114 c0 -19 5 -24 25 -24 18 0 25 5 25 20 0 11 -3 20 -7 21 -5
0 -16 2 -25 4 -13 2 -18 -3 -18 -21z"/>
<path d="M2619 2132 c0 -4 -2 -15 -4 -24 -2 -13 3 -18 22 -18 19 0 24 4 21 22
-3 19 -37 36 -39 20z"/>
<path d="M2697 2134 c-4 -4 -7 -16 -7 -26 0 -14 6 -19 23 -16 14 2 22 10 22
23 0 20 -25 32 -38 19z"/>
<path d="M2767 2134 c-11 -11 7 -44 24 -44 27 0 26 45 0 47 -10 1 -21 -1 -24
-3z"/>
<path d="M2840 2113 c0 -18 6 -23 25 -23 19 0 25 5 25 23 0 18 -6 23 -25 23
-19 0 -25 -5 -25 -23z"/>
<path d="M2910 2115 c0 -20 5 -25 24 -25 14 0 27 4 30 9 11 18 -6 41 -30 41
-19 0 -24 -5 -24 -25z"/>
<path d="M2990 2115 c0 -20 5 -25 25 -25 20 0 25 5 25 25 0 20 -5 25 -25 25
-20 0 -25 -5 -25 -25z"/>
<path d="M3060 2115 c0 -21 5 -25 29 -25 25 0 29 4 27 25 -1 20 -6 25 -28 25
-23 0 -28 -4 -28 -25z"/>
<path d="M3140 2115 c0 -20 5 -25 25 -25 20 0 25 5 25 25 0 20 -5 25 -25 25
-20 0 -25 -5 -25 -25z"/>
<path d="M3220 2115 c0 -19 5 -25 23 -25 17 0 23 6 25 25 1 21 -3 25 -23 25
-20 0 -25 -5 -25 -25z"/>
<path d="M3290 2115 c0 -21 5 -25 30 -25 24 0 30 4 28 18 -7 39 -58 46 -58 7z"/>
<path d="M3377 2134 c-4 -4 -7 -16 -7 -26 0 -13 7 -18 26 -18 21 0 25 4 22 22
-3 23 -27 35 -41 22z"/>
<path d="M3440 2116 c0 -21 5 -26 26 -26 21 0 25 4 22 23 -2 14 -11 23 -25 25
-19 3 -23 -1 -23 -22z"/>
<path d="M3520 2114 c0 -21 4 -25 23 -22 14 2 23 11 25 26 3 18 -1 22 -22 22
-21 0 -26 -5 -26 -26z"/>
<path d="M1250 2055 c0 -20 5 -25 25 -25 20 0 25 5 25 25 0 20 -5 25 -25 25
-20 0 -25 -5 -25 -25z"/>
<path d="M1327 2073 c-10 -21 0 -38 26 -41 23 -3 27 0 27 22 0 21 -5 26 -24
26 -14 0 -27 -3 -29 -7z"/>
<path d="M1400 2054 c0 -22 4 -25 28 -22 19 2 28 9 30 26 3 19 -1 22 -27 22
-27 0 -31 -4 -31 -26z"/>
<path d="M1480 2055 c0 -20 5 -25 25 -25 20 0 25 5 25 25 0 20 -5 25 -25 25
-20 0 -25 -5 -25 -25z"/>
<path d="M1560 2054 c0 -21 4 -25 23 -22 14 2 23 11 25 26 3 18 -1 22 -22 22
-21 0 -26 -5 -26 -26z"/>
<path d="M1630 2056 c0 -14 3 -26 8 -27 4 0 16 -2 28 -3 17 -2 21 3 20 23 -1
21 -7 27 -28 29 -24 3 -28 0 -28 -22z"/>
<path d="M1710 2051 c0 -23 4 -28 23 -26 35 4 35 4 32 23 -2 9 -4 20 -4 25 -1
4 -12 7 -26 7 -21 0 -25 -5 -25 -29z"/>
<path d="M1796 2073 c-3 -4 -6 -17 -6 -30 0 -18 6 -23 24 -23 18 0 23 5 21 18
-2 9 -4 20 -4 23 -1 10 -28 19 -35 12z"/>
<path d="M1860 2044 c0 -21 4 -25 23 -22 14 2 23 11 25 26 3 18 -1 22 -22 22
-21 0 -26 -5 -26 -26z"/>
<path d="M1940 2045 c0 -20 5 -25 25 -25 20 0 25 5 25 25 0 20 -5 25 -25 25
-20 0 -25 -5 -25 -25z"/>
<path d="M2020 2045 c0 -20 5 -25 25 -25 20 0 25 5 25 25 0 20 -5 25 -25 25
-20 0 -25 -5 -25 -25z"/>
<path d="M2090 2045 c0 -20 5 -25 25 -25 20 0 25 5 25 25 0 20 -5 25 -25 25
-20 0 -25 -5 -25 -25z"/>
<path d="M2160 2046 c0 -14 7 -25 18 -28 28 -8 42 2 42 28 0 20 -5 24 -30 24
-25 0 -30 -4 -30 -24z"/>
<path d="M2240 2046 c0 -15 7 -26 19 -29 25 -6 31 0 31 30 0 18 -5 23 -25 23
-20 0 -25 -5 -25 -24z"/>
<path d="M2312 2046 c-2 -26 18 -39 43 -30 8 4 15 17 15 30 0 20 -5 24 -28 24
-22 0 -28 -5 -30 -24z"/>
<path d="M2390 2047 c0 -30 6 -36 31 -30 12 3 19 14 19 29 0 19 -5 24 -25 24
-20 0 -25 -5 -25 -23z"/>
<path d="M2462 2046 c1 -15 10 -27 22 -30 27 -7 36 1 36 30 0 20 -5 24 -30 24
-25 0 -29 -4 -28 -24z"/>
<path d="M2542 2043 c2 -21 9 -28 26 -29 18 -1 22 4 22 27 0 24 -4 29 -26 29
-22 0 -25 -4 -22 -27z"/>
<path d="M2616 2062 c-3 -5 -3 -18 0 -29 8 -29 44 -19 44 13 0 17 -6 24 -19
24 -11 0 -22 -4 -25 -8z"/>
<path d="M2690 2047 c0 -27 19 -40 39 -27 20 12 8 45 -17 48 -18 3 -22 -1 -22
-21z"/>
<path d="M2767 2063 c-10 -9 -8 -41 2 -47 18 -11 41 6 41 30 0 17 -6 24 -18
24 -10 0 -22 -3 -25 -7z"/>
<path d="M2843 2058 c-5 -7 -9 -20 -9 -28 1 -13 11 -16 46 -11 6 0 10 12 10
26 0 27 -30 35 -47 13z"/>
<path d="M2910 2046 c0 -15 7 -26 19 -29 25 -6 31 0 31 30 0 18 -5 23 -25 23
-20 0 -25 -5 -25 -24z"/>
<path d="M2990 2045 c0 -20 5 -25 25 -25 20 0 25 5 25 25 0 20 -5 25 -25 25
-20 0 -25 -5 -25 -25z"/>
<path d="M3060 2045 c0 -20 5 -25 24 -25 25 0 36 15 29 38 -3 6 -16 12 -29 12
-19 0 -24 -5 -24 -25z"/>
<path d="M3140 2045 c0 -20 5 -25 25 -25 20 0 25 5 25 25 0 20 -5 25 -25 25
-20 0 -25 -5 -25 -25z"/>
<path d="M3210 2044 c0 -22 4 -25 27 -22 18 2 27 10 29 26 3 19 -1 22 -26 22
-26 0 -30 -4 -30 -26z"/>
<path d="M3290 2045 c0 -20 5 -25 25 -25 20 0 25 5 25 25 0 20 -5 25 -25 25
-20 0 -25 -5 -25 -25z"/>
<path d="M3360 2045 c0 -20 5 -25 25 -25 20 0 25 5 25 25 0 20 -5 25 -25 25
-20 0 -25 -5 -25 -25z"/>
<path d="M3440 2044 c0 -21 4 -25 23 -22 14 2 23 11 25 26 3 18 -1 22 -22 22
-21 0 -26 -5 -26 -26z"/>
<path d="M3510 2045 c0 -20 5 -25 25 -25 20 0 25 5 25 25 0 20 -5 25 -25 25
-20 0 -25 -5 -25 -25z"/>
<path d="M1260 1980 c0 -25 4 -30 25 -30 21 0 25 5 25 30 0 25 -4 30 -25 30
-21 0 -25 -5 -25 -30z"/>
<path d="M1330 1980 c0 -25 4 -30 24 -30 16 0 26 7 29 22 8 29 1 38 -29 38
-20 0 -24 -5 -24 -30z"/>
<path d="M1410 1980 c0 -25 4 -30 25 -30 21 0 25 5 25 30 0 25 -4 30 -25 30
-21 0 -25 -5 -25 -30z"/>
<path d="M1485 1996 c-9 -31 -1 -46 27 -46 26 0 29 3 26 28 -2 20 -9 27 -26
28 -13 1 -25 -4 -27 -10z"/>
<path d="M1573 2003 c-7 -3 -13 -16 -13 -29 0 -20 5 -24 28 -24 23 0 28 4 28
24 0 24 -19 37 -43 29z"/>
<path d="M1640 1975 c0 -20 5 -25 25 -25 20 0 25 5 25 25 0 20 -5 25 -25 25
-20 0 -25 -5 -25 -25z"/>
<path d="M1710 1975 c0 -21 5 -25 30 -25 25 0 30 4 30 25 0 21 -5 25 -30 25
-25 0 -30 -4 -30 -25z"/>
<path d="M1790 1975 c0 -20 5 -25 25 -25 20 0 25 5 25 25 0 20 -5 25 -25 25
-20 0 -25 -5 -25 -25z"/>
<path d="M1870 1975 c0 -20 5 -25 25 -25 20 0 25 5 25 25 0 20 -5 25 -25 25
-20 0 -25 -5 -25 -25z"/>
<path d="M1940 1975 c0 -20 5 -25 25 -25 20 0 25 5 25 25 0 20 -5 25 -25 25
-20 0 -25 -5 -25 -25z"/>
<path d="M2020 1972 c0 -23 4 -28 25 -28 21 0 25 5 25 28 0 23 -4 28 -25 28
-21 0 -25 -5 -25 -28z"/>
<path d="M2092 1973 c2 -20 9 -29 26 -31 19 -3 22 1 22 27 0 27 -4 31 -26 31
-22 0 -25 -4 -22 -27z"/>
<path d="M2163 1973 c2 -23 7 -28 27 -28 20 0 26 6 28 28 3 24 0 27 -27 27
-26 0 -30 -3 -28 -27z"/>
<path d="M2240 1970 c0 -25 4 -30 25 -30 21 0 25 5 25 30 0 25 -4 30 -25 30
-21 0 -25 -5 -25 -30z"/>
<path d="M2310 1986 c0 -30 13 -46 36 -46 20 0 24 5 24 30 0 27 -3 30 -30 30
-19 0 -30 -5 -30 -14z"/>
<path d="M2390 1970 c0 -25 4 -30 23 -30 20 0 24 5 25 30 1 25 -3 30 -24 30
-20 0 -24 -5 -24 -30z"/>
<path d="M2464 1973 c1 -23 6 -28 26 -28 20 0 26 6 28 28 3 24 0 27 -26 27
-25 0 -29 -4 -28 -27z"/>
<path d="M2540 1970 c0 -25 4 -30 25 -30 21 0 25 5 25 30 0 25 -4 30 -25 30
-21 0 -25 -5 -25 -30z"/>
<path d="M2612 1973 c2 -20 9 -29 26 -31 19 -3 22 1 22 27 0 27 -4 31 -26 31
-22 0 -25 -4 -22 -27z"/>
<path d="M2690 1969 c0 -26 3 -30 23 -27 16 2 23 11 25 31 3 23 0 27 -22 27
-22 0 -26 -4 -26 -31z"/>
<path d="M2762 1973 c2 -20 9 -29 26 -31 19 -3 22 1 22 27 0 27 -4 31 -26 31
-22 0 -25 -4 -22 -27z"/>
<path d="M2839 1998 c-12 -39 -1 -58 34 -58 12 0 17 8 17 30 0 25 -4 30 -25
30 -14 0 -25 -1 -26 -2z"/>
<path d="M2910 1970 c0 -26 3 -29 25 -28 20 2 25 8 25 30 0 23 -4 28 -25 28
-21 0 -25 -5 -25 -30z"/>
<path d="M2983 1973 c2 -23 7 -28 27 -28 20 0 26 6 28 28 3 24 0 27 -27 27
-26 0 -30 -3 -28 -27z"/>
<path d="M3060 1971 c0 -23 4 -28 23 -27 16 1 23 8 25 29 3 23 0 27 -22 27
-22 0 -26 -5 -26 -29z"/>
<path d="M3134 1978 c3 -13 5 -25 5 -28 1 -4 12 -6 26 -6 21 0 25 5 25 28 0
24 -4 28 -30 28 -26 0 -29 -3 -26 -22z"/>
<path d="M3210 1970 c0 -25 4 -29 22 -27 21 4 40 34 31 50 -2 4 -15 7 -29 7
-20 0 -24 -5 -24 -30z"/>
<path d="M3290 1976 c0 -27 14 -40 34 -33 21 8 8 57 -15 57 -13 0 -19 -7 -19
-24z"/>
<path d="M3360 1971 c0 -22 4 -28 18 -26 9 2 20 4 25 4 4 1 7 12 7 26 0 20 -5
25 -25 25 -21 0 -25 -5 -25 -29z"/>
<path d="M3440 1977 c0 -30 6 -36 29 -30 13 3 17 11 13 29 -6 33 -42 33 -42 1z"/>
<path d="M3510 1976 c0 -13 6 -26 13 -29 22 -7 37 4 37 29 0 19 -5 24 -25 24
-20 0 -25 -5 -25 -24z"/>
<path d="M1260 1905 c0 -20 5 -25 25 -25 20 0 25 5 25 25 0 20 -5 25 -25 25
-20 0 -25 -5 -25 -25z"/>
<path d="M1330 1906 c0 -22 5 -26 29 -26 23 0 28 4 27 23 -1 16 -8 23 -28 25
-24 3 -28 0 -28 -22z"/>
<path d="M1410 1905 c0 -20 5 -25 24 -25 24 0 41 23 30 41 -3 5 -16 9 -30 9
-19 0 -24 -5 -24 -25z"/>
<path d="M1490 1905 c0 -20 5 -25 25 -25 20 0 25 5 25 25 0 20 -5 25 -25 25
-20 0 -25 -5 -25 -25z"/>
<path d="M1560 1906 c0 -22 4 -26 31 -26 26 0 30 3 27 23 -2 16 -11 23 -30 25
-24 3 -28 0 -28 -22z"/>
<path d="M1640 1901 c0 -25 3 -28 25 -23 18 3 25 11 25 28 0 19 -5 24 -25 24
-21 0 -25 -5 -25 -29z"/>
<path d="M1720 1906 c0 -17 7 -25 25 -28 22 -5 25 -2 25 23 0 24 -4 29 -25 29
-20 0 -25 -5 -25 -24z"/>
<path d="M1792 1903 c4 -33 34 -38 52 -10 12 20 -4 37 -37 37 -14 0 -18 -6
-15 -27z"/>
<path d="M1870 1901 c0 -25 4 -29 25 -27 20 1 25 6 25 29 0 22 -4 27 -25 27
-21 0 -25 -5 -25 -29z"/>
<path d="M1940 1905 c0 -20 5 -25 25 -25 20 0 25 5 25 25 0 20 -5 25 -25 25
-20 0 -25 -5 -25 -25z"/>
<path d="M2020 1901 c0 -24 4 -29 24 -27 20 1 24 6 24 29 -1 21 -6 27 -25 27
-19 0 -23 -5 -23 -29z"/>
<path d="M2096 1915 c-11 -28 -7 -35 20 -35 21 0 25 4 22 22 -4 27 -33 36 -42
13z"/>
<path d="M2165 1909 c-8 -25 -7 -26 28 -33 24 -4 27 -2 27 22 0 22 -5 28 -24
30 -17 1 -27 -5 -31 -19z"/>
<path d="M2240 1904 c0 -12 6 -24 13 -27 21 -7 37 4 37 27 0 17 -6 22 -25 22
-19 0 -25 -5 -25 -22z"/>
<path d="M2316 1918 c-10 -31 -2 -45 26 -45 25 0 29 4 26 26 -2 18 -10 27 -26
29 -12 2 -24 -3 -26 -10z"/>
<path d="M2390 1900 c0 -25 3 -29 23 -26 15 2 23 11 25 29 3 23 0 27 -22 27
-22 0 -26 -4 -26 -30z"/>
<path d="M2471 1922 c-20 -7 -12 -39 12 -46 35 -9 37 -8 37 23 0 29 -13 35
-49 23z"/>
<path d="M2540 1904 c0 -12 4 -25 9 -28 17 -11 41 6 41 29 0 17 -6 23 -25 23
-19 0 -25 -6 -25 -24z"/>
<path d="M2614 1915 c-9 -23 0 -38 24 -40 18 -1 22 4 22 27 0 21 -5 28 -20 28
-11 0 -23 -7 -26 -15z"/>
<path d="M2690 1904 c0 -12 7 -25 16 -28 21 -8 26 -3 29 28 3 22 -1 25 -21 24
-17 -2 -24 -8 -24 -24z"/>
<path d="M2773 1923 c-7 -2 -13 -15 -13 -28 0 -17 5 -22 18 -20 9 2 20 4 25 4
4 1 7 12 7 26 0 24 -11 29 -37 18z"/>
<path d="M2835 1917 c-9 -30 -1 -46 19 -42 12 2 24 4 29 4 4 1 7 11 7 24 0 17
-6 23 -25 25 -14 1 -27 -4 -30 -11z"/>
<path d="M2910 1906 c0 -15 7 -26 19 -29 24 -6 31 0 31 27 0 16 -7 22 -25 24
-20 1 -25 -3 -25 -22z"/>
<path d="M2987 1924 c-4 -4 -7 -17 -7 -28 0 -17 6 -21 30 -21 27 0 30 3 28 25
-3 25 -35 40 -51 24z"/>
<path d="M3060 1900 c0 -21 5 -26 25 -26 20 0 25 5 25 26 0 21 -5 26 -25 26
-20 0 -25 -5 -25 -26z"/>
<path d="M3137 1923 c-9 -9 -9 -43 1 -44 47 -8 52 -6 52 22 0 24 -4 29 -23 29
-13 0 -27 -3 -30 -7z"/>
<path d="M3214 1916 c-9 -24 2 -45 23 -42 24 4 25 49 0 54 -9 2 -20 -4 -23
-12z"/>
<path d="M3289 1928 c-1 -2 -2 -16 -3 -31 -2 -21 1 -27 11 -22 8 3 19 5 24 5
5 0 9 11 9 25 0 18 -5 25 -20 25 -11 0 -20 -1 -21 -2z"/>
<path d="M3360 1900 c0 -21 5 -26 25 -26 21 0 25 5 25 28 0 24 -4 27 -25 26
-20 -2 -25 -8 -25 -28z"/>
<path d="M3434 1915 c-7 -18 13 -45 29 -42 18 3 25 17 20 38 -6 23 -41 25 -49
4z"/>
<path d="M3507 1909 c-4 -14 1 -23 16 -28 28 -11 37 -5 37 22 0 31 -45 36 -53
6z"/>
<path d="M1260 1835 c0 -20 5 -25 25 -25 20 0 25 5 25 25 0 20 -5 25 -25 25
-20 0 -25 -5 -25 -25z"/>
<path d="M1332 1836 c2 -21 8 -26 29 -26 21 0 26 5 25 23 -1 16 -8 23 -28 25
-24 3 -28 0 -26 -22z"/>
<path d="M1412 1838 c2 -15 11 -24 26 -26 18 -3 22 1 22 22 0 21 -5 26 -26 26
-21 0 -25 -4 -22 -22z"/>
<path d="M1490 1834 c0 -21 4 -25 23 -22 14 2 23 11 25 26 3 18 -1 22 -22 22
-21 0 -26 -5 -26 -26z"/>
<path d="M1563 1844 c-3 -8 -1 -20 5 -26 16 -16 47 -5 50 20 3 18 -1 22 -23
22 -14 0 -28 -7 -32 -16z"/>
<path d="M1640 1835 c0 -20 5 -25 24 -25 25 0 36 15 29 38 -3 6 -16 12 -29 12
-19 0 -24 -5 -24 -25z"/>
<path d="M1720 1835 c0 -20 5 -25 25 -25 20 0 25 5 25 25 0 20 -5 25 -25 25
-20 0 -25 -5 -25 -25z"/>
<path d="M1790 1833 c0 -19 5 -23 30 -23 25 0 29 4 28 24 -2 20 -8 24 -30 24
-22 -1 -28 -6 -28 -25z"/>
<path d="M1870 1836 c0 -21 5 -26 26 -26 21 0 25 4 22 23 -2 14 -11 23 -25 25
-19 3 -23 -1 -23 -22z"/>
<path d="M1953 1853 c-31 -12 -7 -57 25 -46 6 3 12 16 12 29 0 23 -11 28 -37
17z"/>
<path d="M2020 1833 c0 -20 5 -24 23 -21 14 2 22 10 22 22 0 13 -8 20 -22 21
-18 1 -23 -4 -23 -22z"/>
<path d="M2096 1843 c-8 -20 1 -33 25 -33 12 0 19 7 19 19 0 23 -36 35 -44 14z"/>
<path d="M2164 1848 c-9 -15 10 -38 32 -38 18 0 24 5 24 23 0 17 -6 22 -26 22
-14 0 -28 -3 -30 -7z"/>
<path d="M2253 1853 c-7 -2 -13 -13 -13 -24 0 -14 7 -19 26 -19 20 0 25 4 22
22 -3 23 -15 30 -35 21z"/>
<path d="M2335 1851 c-11 -3 -21 -14 -23 -23 -2 -14 4 -18 28 -18 23 0 30 4
30 19 0 24 -9 30 -35 22z"/>
<path d="M2403 1853 c-7 -3 -13 -13 -13 -24 0 -14 7 -19 25 -19 18 0 25 5 25
19 0 20 -17 31 -37 24z"/>
<path d="M2473 1853 c-7 -3 -13 -14 -13 -24 0 -16 6 -20 27 -17 16 2 29 10 31
19 3 17 -23 29 -45 22z"/>
<path d="M2540 1834 c0 -19 5 -24 25 -24 18 0 25 5 25 20 0 11 -3 20 -7 21 -5
0 -16 2 -25 4 -13 2 -18 -3 -18 -21z"/>
<path d="M2696 1852 c-3 -3 -6 -14 -6 -24 0 -13 7 -18 25 -18 18 0 25 5 25 19
0 18 -33 35 -44 23z"/>
<path d="M2770 1850 c-18 -11 -4 -40 20 -40 13 0 20 7 20 19 0 22 -21 33 -40
21z"/>
<path d="M2853 1852 c-15 -2 -23 -10 -23 -23 0 -14 7 -19 30 -19 23 0 30 5 30
19 0 24 -8 28 -37 23z"/>
<path d="M2910 1833 c0 -18 6 -23 25 -23 19 0 25 5 25 23 0 18 -6 23 -25 23
-19 0 -25 -5 -25 -23z"/>
<path d="M2990 1850 c-7 -4 -10 -15 -7 -25 10 -24 52 -16 53 10 1 22 -22 30
-46 15z"/>
<path d="M3060 1834 c0 -25 38 -41 47 -19 8 23 -2 38 -25 40 -17 1 -22 -4 -22
-21z"/>
<path d="M3135 1852 c-3 -3 -5 -14 -5 -24 0 -13 8 -18 31 -18 26 0 30 3 27 22
-3 20 -39 33 -53 20z"/>
<path d="M3223 1853 c-7 -3 -13 -13 -13 -24 0 -14 7 -19 25 -19 18 0 25 5 25
19 0 20 -17 31 -37 24z"/>
<path d="M3283 1843 c-7 -18 6 -33 28 -33 13 0 19 7 19 24 0 19 -5 24 -21 23
-12 -1 -23 -7 -26 -14z"/>
<path d="M3360 1833 c0 -18 6 -23 25 -23 20 0 25 5 25 24 0 19 -5 24 -25 22
-19 -1 -25 -7 -25 -23z"/>
<path d="M3443 1853 c-7 -2 -13 -13 -13 -24 0 -14 7 -19 26 -19 20 0 25 4 22
22 -3 23 -15 30 -35 21z"/>
<path d="M3513 1853 c-7 -3 -13 -13 -13 -24 0 -15 7 -19 31 -19 25 0 30 3 27
22 -3 21 -21 29 -45 21z"/>
<path d="M2617 1843 c-16 -15 -6 -33 18 -33 18 0 25 5 25 20 0 20 -28 28 -43
13z"/>
<path d="M1260 1766 c0 -21 5 -26 26 -26 21 0 25 4 22 23 -2 14 -11 23 -25 25
-19 3 -23 -1 -23 -22z"/>
<path d="M1330 1765 c0 -20 5 -25 24 -25 25 0 36 15 29 38 -3 6 -16 12 -29 12
-19 0 -24 -5 -24 -25z"/>
<path d="M1410 1765 c0 -20 5 -25 25 -25 19 0 25 5 25 23 0 17 -6 23 -25 25
-21 1 -25 -3 -25 -23z"/>
<path d="M1489 1785 c0 0 -2 -10 -5 -22 -3 -20 0 -23 26 -23 25 0 30 4 30 25
0 20 -4 24 -25 23 -14 -1 -25 -3 -26 -3z"/>
<path d="M1560 1765 c0 -28 6 -33 34 -28 35 7 30 47 -6 48 -23 2 -28 -2 -28
-20z"/>
<path d="M1640 1765 c0 -28 7 -34 31 -28 12 3 19 14 19 28 0 17 -6 23 -25 23
-19 0 -25 -6 -25 -23z"/>
<path d="M1722 1761 c2 -18 9 -26 23 -26 14 0 21 8 23 26 3 23 -1 27 -23 27
-22 0 -26 -4 -23 -27z"/>
<path d="M1796 1782 c-9 -8 -7 -52 2 -52 28 1 52 15 52 31 0 11 -3 19 -7 20
-5 0 -16 2 -25 4 -9 2 -19 0 -22 -3z"/>
<path d="M1888 1783 c-11 -3 -18 -14 -18 -28 0 -18 5 -23 25 -21 19 1 25 7 25
23 0 25 -8 31 -32 26z"/>
<path d="M1951 1780 c-20 -12 -9 -43 17 -46 18 -3 22 1 22 20 0 26 -19 39 -39
26z"/>
<path d="M2026 1782 c-3 -3 -6 -16 -6 -29 0 -18 5 -23 25 -23 20 0 25 5 25 24
0 22 -31 42 -44 28z"/>
<path d="M2096 1766 c-7 -25 1 -36 25 -36 14 0 19 7 19 28 0 21 -5 28 -19 28
-11 0 -22 -9 -25 -20z"/>
<path d="M2169 1779 c-21 -13 -5 -44 24 -45 23 -1 27 3 27 25 0 20 -5 27 -20
27 -12 0 -26 -3 -31 -7z"/>
<path d="M2242 1761 c2 -19 9 -26 26 -27 34 -2 31 42 -4 49 -22 4 -25 1 -22
-22z"/>
<path d="M2316 1781 c-10 -22 2 -44 25 -47 22 -2 26 1 25 24 -1 19 -7 26 -24
27 -13 1 -24 -1 -26 -4z"/>
<path d="M2390 1760 c0 -23 4 -27 25 -27 20 0 25 4 25 26 0 21 -5 26 -25 27
-21 2 -25 -3 -25 -26z"/>
<path d="M2470 1780 c-22 -14 -7 -44 23 -47 25 -2 28 1 25 24 -3 27 -25 37
-48 23z"/>
<path d="M2540 1759 c0 -25 4 -28 25 -27 19 2 25 8 25 25 0 13 -3 23 -7 24 -5
0 -16 2 -25 4 -14 2 -18 -4 -18 -26z"/>
<path d="M2623 1781 c-5 -3 -8 -12 -7 -18 1 -7 2 -17 3 -23 0 -5 10 -10 21
-10 15 0 20 7 20 28 0 27 -17 37 -37 23z"/>
<path d="M2703 1783 c-7 -3 -13 -16 -13 -29 0 -19 5 -24 25 -24 20 0 25 5 25
24 0 25 -15 36 -37 29z"/>
<path d="M2763 1774 c-8 -22 5 -44 27 -44 28 0 28 46 -1 53 -12 3 -22 0 -26
-9z"/>
<path d="M2833 1774 c-9 -24 4 -41 31 -41 21 0 26 4 26 23 0 13 -3 24 -7 25
-5 0 -16 2 -26 4 -10 2 -21 -3 -24 -11z"/>
<path d="M2928 1783 c-11 -3 -18 -14 -18 -29 0 -19 5 -23 25 -22 19 2 25 8 25
25 0 25 -8 31 -32 26z"/>
<path d="M2983 1773 c-9 -22 3 -38 30 -41 22 -1 25 2 24 25 -2 20 -8 27 -26
28 -12 1 -25 -4 -28 -12z"/>
<path d="M3066 1782 c-3 -3 -6 -15 -6 -27 0 -17 6 -22 26 -22 21 0 25 4 22 25
-3 23 -29 38 -42 24z"/>
<path d="M3140 1780 c-7 -4 -10 -16 -8 -26 5 -28 52 -26 56 2 3 23 -26 38 -48
24z"/>
<path d="M3216 1782 c-3 -3 -6 -16 -6 -29 0 -18 5 -22 23 -19 29 4 36 41 8 49
-11 2 -22 2 -25 -1z"/>
<path d="M3291 1780 c-20 -12 -9 -43 17 -46 18 -3 22 1 22 20 0 26 -19 39 -39
26z"/>
<path d="M3373 1783 c-7 -3 -13 -15 -13 -27 0 -17 6 -22 25 -22 19 0 25 5 25
22 0 23 -16 34 -37 27z"/>
<path d="M3452 1783 c-31 -6 -27 -46 6 -48 18 -1 22 3 22 27 0 15 -1 27 -2 27
-2 -1 -13 -4 -26 -6z"/>
<path d="M3500 1761 c0 -11 5 -23 10 -26 18 -11 50 6 50 26 0 14 -7 19 -30 19
-23 0 -30 -5 -30 -19z"/>
<path d="M1245 1688 c1 -13 5 -22 8 -20 4 1 16 2 27 2 13 0 20 7 20 20 0 15
-7 20 -28 20 -24 0 -28 -4 -27 -22z"/>
<path d="M1320 1685 c0 -22 4 -25 28 -22 19 2 28 10 30 25 3 19 -1 22 -27 22
-26 0 -31 -4 -31 -25z"/>
<path d="M1400 1691 c0 -23 35 -34 50 -15 16 18 4 34 -26 34 -17 0 -24 -6 -24
-19z"/>
<path d="M1480 1692 c0 -25 7 -31 31 -25 29 8 25 43 -6 43 -18 0 -25 -5 -25
-18z"/>
<path d="M1560 1691 c0 -24 13 -33 34 -25 27 10 20 44 -9 44 -18 0 -25 -5 -25
-19z"/>
<path d="M1640 1685 c0 -20 4 -24 23 -21 13 2 23 11 25 24 3 18 -2 22 -22 22
-21 0 -26 -5 -26 -25z"/>
<path d="M1712 1688 c2 -16 10 -23 28 -23 18 0 26 7 28 23 3 19 -1 22 -28 22
-27 0 -31 -3 -28 -22z"/>
<path d="M1792 1688 c3 -21 17 -28 19 -10 0 4 5 13 11 20 8 9 5 12 -11 12 -17
0 -22 -5 -19 -22z"/>
<path d="M1883 1703 c9 -2 23 -2 30 0 6 3 -1 5 -18 5 -16 0 -22 -2 -12 -5z"/>
<path d="M1958 1703 c6 -2 18 -2 25 0 6 3 1 5 -13 5 -14 0 -19 -2 -12 -5z"/>
<path d="M2033 1703 c9 -2 23 -2 30 0 6 3 -1 5 -18 5 -16 0 -22 -2 -12 -5z"/>
<path d="M2108 1703 c6 -2 18 -2 25 0 6 3 1 5 -13 5 -14 0 -19 -2 -12 -5z"/>
<path d="M2183 1703 c9 -2 23 -2 30 0 6 3 -1 5 -18 5 -16 0 -22 -2 -12 -5z"/>
<path d="M2253 1703 c9 -2 23 -2 30 0 6 3 -1 5 -18 5 -16 0 -22 -2 -12 -5z"/>
<path d="M2333 1703 c9 -2 23 -2 30 0 6 3 -1 5 -18 5 -16 0 -22 -2 -12 -5z"/>
<path d="M2403 1703 c9 -2 23 -2 30 0 6 3 -1 5 -18 5 -16 0 -22 -2 -12 -5z"/>
<path d="M2478 1703 c7 -3 16 -2 19 1 4 3 -2 6 -13 5 -11 0 -14 -3 -6 -6z"/>
<path d="M2553 1703 c9 -2 23 -2 30 0 6 3 -1 5 -18 5 -16 0 -22 -2 -12 -5z"/>
<path d="M2623 1703 c9 -2 23 -2 30 0 6 3 -1 5 -18 5 -16 0 -22 -2 -12 -5z"/>
<path d="M2698 1703 c6 -2 18 -2 25 0 6 3 1 5 -13 5 -14 0 -19 -2 -12 -5z"/>
<path d="M2773 1703 c9 -2 23 -2 30 0 6 3 -1 5 -18 5 -16 0 -22 -2 -12 -5z"/>
<path d="M2853 1703 c9 -2 23 -2 30 0 6 3 -1 5 -18 5 -16 0 -22 -2 -12 -5z"/>
<path d="M2923 1703 c9 -2 23 -2 30 0 6 3 -1 5 -18 5 -16 0 -22 -2 -12 -5z"/>
<path d="M2998 1689 c5 -11 11 -20 15 -20 4 1 12 1 17 1 6 0 10 9 10 20 0 15
-7 20 -25 20 -20 0 -23 -3 -17 -21z"/>
<path d="M3060 1688 c0 -17 6 -23 25 -24 20 -2 25 3 25 22 0 19 -5 24 -25 24
-19 0 -25 -5 -25 -22z"/>
<path d="M3130 1687 c0 -20 4 -23 30 -19 21 3 30 10 30 23 0 14 -7 19 -30 19
-25 0 -30 -4 -30 -23z"/>
<path d="M3210 1692 c0 -25 7 -31 31 -25 29 8 25 43 -6 43 -18 0 -25 -5 -25
-18z"/>
<path d="M3280 1686 c0 -18 5 -23 18 -21 9 2 20 4 25 4 4 1 7 10 7 21 0 15 -7
20 -25 20 -20 0 -25 -5 -25 -24z"/>
<path d="M3360 1688 c0 -17 6 -23 25 -24 20 -2 25 3 25 22 0 19 -5 24 -25 24
-19 0 -25 -5 -25 -22z"/>
<path d="M3430 1688 c0 -18 6 -23 25 -23 19 0 25 5 25 23 0 17 -6 22 -25 22
-19 0 -25 -5 -25 -22z"/>
<path d="M3502 1688 c2 -16 10 -22 31 -23 22 -2 27 2 27 22 0 19 -5 23 -31 23
-26 0 -30 -3 -27 -22z"/>
<path d="M1232 1623 c2 -22 9 -29 31 -31 26 -3 28 -1 25 25 -2 22 -9 29 -31
31 -26 3 -28 1 -25 -25z"/>
<path d="M1310 1620 c0 -27 3 -30 30 -30 19 0 30 5 30 14 0 30 -13 46 -36 46
-20 0 -24 -5 -24 -30z"/>
<path d="M1390 1620 c0 -26 3 -29 30 -27 26 2 30 6 28 30 -2 22 -7 27 -30 27
-24 0 -28 -4 -28 -30z"/>
<path d="M1472 1623 c2 -21 9 -29 28 -31 22 -3 26 1 28 28 2 27 0 30 -29 30
-27 0 -30 -3 -27 -27z"/>
<path d="M1550 1619 c0 -27 3 -30 27 -27 46 5 38 57 -9 58 -13 0 -18 -8 -18
-31z"/>
<path d="M1630 1620 c0 -25 4 -30 24 -30 26 0 36 14 28 43 -3 10 -14 17 -28
17 -20 0 -24 -5 -24 -30z"/>
<path d="M1710 1620 c0 -25 4 -30 25 -30 21 0 25 5 25 30 0 25 -4 30 -25 30
-21 0 -25 -5 -25 -30z"/>
<path d="M1790 1620 c0 -16 5 -30 10 -30 6 0 10 14 10 30 0 17 -4 30 -10 30
-5 0 -10 -13 -10 -30z"/>
<path d="M3000 1619 c0 -23 4 -30 17 -27 11 2 18 14 20 31 1 21 -3 27 -18 27
-15 0 -19 -7 -19 -31z"/>
<path d="M3060 1620 c0 -25 4 -30 25 -30 21 0 25 5 25 30 0 25 -4 30 -25 30
-21 0 -25 -5 -25 -30z"/>
<path d="M3130 1620 c0 -27 3 -30 30 -30 27 0 30 3 30 30 0 27 -3 30 -30 30
-27 0 -30 -3 -30 -30z"/>
<path d="M3210 1620 c0 -25 4 -30 25 -30 21 0 25 5 25 30 0 25 -4 30 -25 30
-21 0 -25 -5 -25 -30z"/>
<path d="M3280 1622 c0 -22 5 -28 25 -30 22 -1 25 2 25 28 0 25 -4 30 -25 30
-21 0 -25 -5 -25 -28z"/>
<path d="M3360 1620 c0 -25 4 -30 25 -30 21 0 25 5 25 30 0 25 -4 30 -25 30
-21 0 -25 -5 -25 -30z"/>
<path d="M3430 1620 c0 -25 4 -30 25 -30 21 0 25 5 25 30 0 25 -4 30 -25 30
-21 0 -25 -5 -25 -30z"/>
<path d="M3500 1620 c0 -27 3 -30 30 -30 28 0 30 3 28 30 -2 26 -6 30 -30 30
-24 0 -28 -4 -28 -30z"/>
<path d="M1220 1550 c0 -25 4 -30 25 -30 21 0 25 5 25 30 0 25 -4 30 -25 30
-21 0 -25 -5 -25 -30z"/>
<path d="M1302 1553 c2 -20 9 -28 23 -28 31 0 28 47 -3 52 -20 3 -23 -1 -20
-24z"/>
<path d="M1380 1550 c0 -27 3 -31 23 -28 16 2 22 10 22 28 0 18 -6 26 -22 28
-20 3 -23 -1 -23 -28z"/>
<path d="M1467 1573 c-4 -3 -7 -17 -7 -30 0 -18 6 -23 24 -23 26 0 39 20 30
45 -6 15 -35 20 -47 8z"/>
<path d="M1542 1551 c4 -35 51 -38 56 -3 2 12 0 23 -5 23 -50 8 -54 6 -51 -20z"/>
<path d="M1626 1573 c-14 -14 -6 -53 12 -53 27 0 44 16 40 35 -3 18 -39 30
-52 18z"/>
<path d="M1706 1573 c-10 -10 -7 -41 4 -48 19 -12 47 5 46 27 -1 21 -35 35
-50 21z"/>
<path d="M1784 1565 c-8 -20 3 -48 16 -40 13 8 13 55 0 55 -6 0 -13 -7 -16
-15z"/>
<path d="M3000 1547 c0 -22 4 -28 18 -25 10 2 18 14 20 28 2 20 -2 26 -18 26
-15 0 -20 -7 -20 -29z"/>
<path d="M3060 1548 c0 -23 4 -27 25 -26 20 2 25 8 25 29 0 22 -4 27 -25 25
-20 -1 -25 -6 -25 -28z"/>
<path d="M3143 1573 c-7 -2 -13 -16 -13 -29 0 -22 4 -25 27 -22 31 3 44 35 21
49 -14 10 -17 10 -35 2z"/>
<path d="M3210 1549 c0 -25 4 -28 25 -27 21 2 25 7 23 28 -2 18 -9 25 -25 26
-19 1 -23 -4 -23 -27z"/>
<path d="M3283 1564 c-8 -22 5 -46 24 -42 25 5 24 50 0 54 -10 1 -21 -4 -24
-12z"/>
<path d="M3373 1573 c-15 -5 -18 -53 -4 -53 25 0 41 14 41 36 0 23 -11 28 -37
17z"/>
<path d="M3443 1573 c-18 -6 -16 -40 3 -47 28 -11 34 -7 34 22 0 28 -10 34
-37 25z"/>
<path d="M3503 1564 c-9 -24 5 -46 29 -42 15 2 24 11 26 26 2 12 0 22 -5 23
-4 0 -16 2 -26 4 -10 2 -21 -3 -24 -11z"/>
<path d="M1198 1475 c5 -26 36 -35 44 -12 8 21 -3 37 -26 37 -19 0 -22 -4 -18
-25z"/>
<path d="M1280 1475 c0 -20 5 -25 25 -25 20 0 24 4 23 25 -2 19 -8 25 -25 25
-18 0 -23 -6 -23 -25z"/>
<path d="M1360 1475 c0 -20 5 -25 25 -25 20 0 25 5 25 25 0 20 -5 25 -25 25
-20 0 -25 -5 -25 -25z"/>
<path d="M1450 1475 c0 -18 5 -25 20 -25 15 0 20 7 20 25 0 18 -5 25 -20 25
-15 0 -20 -7 -20 -25z"/>
<path d="M1530 1475 c0 -20 5 -25 25 -25 20 0 25 5 25 25 0 20 -5 25 -25 25
-20 0 -25 -5 -25 -25z"/>
<path d="M1610 1475 c0 -20 5 -25 25 -25 20 0 25 5 25 25 0 20 -5 25 -25 25
-20 0 -25 -5 -25 -25z"/>
<path d="M1697 1493 c-4 -3 -7 -15 -7 -25 0 -30 47 -24 52 7 4 21 1 25 -17 25
-12 0 -25 -3 -28 -7z"/>
<path d="M1774 1475 c0 -14 6 -25 13 -25 7 0 13 11 13 25 0 14 -6 25 -13 25
-7 0 -13 -11 -13 -25z"/>
<path d="M3000 1475 c0 -18 5 -25 20 -25 15 0 20 7 20 25 0 18 -5 25 -20 25
-15 0 -20 -7 -20 -25z"/>
<path d="M3060 1475 c0 -20 5 -25 25 -25 20 0 25 5 25 25 0 20 -5 25 -25 25
-20 0 -25 -5 -25 -25z"/>
<path d="M3130 1475 c0 -21 5 -25 30 -25 25 0 30 4 30 25 0 21 -5 25 -30 25
-25 0 -30 -4 -30 -25z"/>
<path d="M3210 1475 c0 -20 5 -25 25 -25 20 0 25 5 25 25 0 20 -5 25 -25 25
-20 0 -25 -5 -25 -25z"/>
<path d="M3280 1475 c0 -20 5 -25 25 -25 20 0 25 5 25 25 0 20 -5 25 -25 25
-20 0 -25 -5 -25 -25z"/>
<path d="M3360 1475 c0 -20 5 -25 25 -25 20 0 25 5 25 25 0 20 -5 25 -25 25
-20 0 -25 -5 -25 -25z"/>
<path d="M3430 1475 c0 -20 5 -25 25 -25 20 0 25 5 25 25 0 20 -5 25 -25 25
-20 0 -25 -5 -25 -25z"/>
<path d="M3500 1475 c0 -21 5 -25 30 -25 25 0 30 4 30 25 0 21 -5 25 -30 25
-25 0 -30 -4 -30 -25z"/>
<path d="M1167 1423 c-18 -17 -6 -39 23 -41 26 -2 30 1 30 23 0 20 -5 25 -23
25 -13 0 -27 -3 -30 -7z"/>
<path d="M1250 1404 c0 -21 4 -25 23 -22 14 2 23 11 25 26 3 18 -1 22 -22 22
-21 0 -26 -5 -26 -26z"/>
<path d="M1340 1405 c0 -20 5 -25 25 -25 20 0 25 5 25 25 0 20 -5 25 -25 25
-20 0 -25 -5 -25 -25z"/>
<path d="M1430 1405 c0 -20 5 -25 25 -25 20 0 24 4 23 25 -2 19 -8 25 -25 25
-18 0 -23 -6 -23 -25z"/>
<path d="M1512 1405 c-1 -21 3 -25 23 -25 20 0 25 5 25 25 0 19 -5 25 -23 25
-17 0 -23 -6 -25 -25z"/>
<path d="M1600 1405 c0 -20 5 -25 25 -25 20 0 25 5 25 25 0 20 -5 25 -25 25
-20 0 -25 -5 -25 -25z"/>
<path d="M1684 1408 c1 -16 8 -24 24 -26 18 -3 22 1 22 22 0 21 -5 26 -24 26
-18 0 -23 -5 -22 -22z"/>
<path d="M1770 1405 c0 -14 5 -25 10 -25 6 0 10 11 10 25 0 14 -4 25 -10 25
-5 0 -10 -11 -10 -25z"/>
<path d="M3000 1410 c0 -11 2 -20 4 -20 2 0 11 -3 20 -6 12 -5 15 0 14 20 -3
32 -38 37 -38 6z"/>
<path d="M3060 1405 c0 -20 5 -25 25 -25 20 0 25 5 25 25 0 20 -5 25 -25 25
-20 0 -25 -5 -25 -25z"/>
<path d="M3130 1405 c0 -21 5 -25 30 -25 25 0 30 4 30 25 0 21 -5 25 -30 25
-25 0 -30 -4 -30 -25z"/>
<path d="M3210 1404 c0 -21 4 -25 23 -22 14 2 23 11 25 26 3 18 -1 22 -22 22
-21 0 -26 -5 -26 -26z"/>
<path d="M3280 1404 c0 -21 4 -25 23 -22 14 2 23 11 25 26 3 18 -1 22 -22 22
-21 0 -26 -5 -26 -26z"/>
<path d="M3360 1405 c0 -20 5 -25 25 -25 20 0 25 5 25 25 0 20 -5 25 -25 25
-20 0 -25 -5 -25 -25z"/>
<path d="M3430 1405 c0 -20 5 -25 25 -25 20 0 25 5 25 25 0 20 -5 25 -25 25
-20 0 -25 -5 -25 -25z"/>
<path d="M3500 1405 c0 -21 5 -25 30 -25 25 0 30 4 30 25 0 21 -5 25 -30 25
-25 0 -30 -4 -30 -25z"/>
<path d="M1132 1338 c2 -15 11 -24 26 -26 18 -3 22 1 22 22 0 21 -5 26 -26 26
-21 0 -25 -4 -22 -22z"/>
<path d="M1222 1338 c4 -33 48 -34 48 -2 0 19 -5 24 -26 24 -21 0 -25 -4 -22
-22z"/>
<path d="M1310 1337 c0 -32 43 -31 48 1 3 18 -2 22 -22 22 -21 0 -26 -5 -26
-23z"/>
<path d="M1400 1342 c0 -25 7 -31 31 -25 29 8 25 43 -6 43 -18 0 -25 -5 -25
-18z"/>
<path d="M1490 1341 c0 -20 25 -35 41 -25 5 3 9 14 9 25 0 14 -7 19 -25 19
-18 0 -25 -5 -25 -19z"/>
<path d="M1582 1338 c2 -15 11 -24 26 -26 18 -3 22 1 22 22 0 21 -5 26 -26 26
-21 0 -25 -4 -22 -22z"/>
<path d="M1672 1338 c2 -15 10 -23 23 -23 13 0 21 8 23 23 3 18 -1 22 -23 22
-22 0 -26 -4 -23 -22z"/>
<path d="M1760 1340 c0 -11 5 -20 10 -20 6 0 10 9 10 20 0 11 -4 20 -10 20 -5
0 -10 -9 -10 -20z"/>
<path d="M3000 1336 c0 -17 5 -24 18 -22 24 4 25 46 1 46 -13 0 -19 -7 -19
-24z"/>
<path d="M3060 1338 c0 -18 6 -23 25 -23 19 0 25 5 25 23 0 17 -6 22 -25 22
-19 0 -25 -5 -25 -22z"/>
<path d="M3132 1338 c3 -21 10 -24 48 -19 6 0 10 10 10 21 0 16 -7 20 -31 20
-26 0 -30 -3 -27 -22z"/>
<path d="M3210 1336 c0 -19 5 -24 25 -22 19 1 25 7 25 24 0 17 -6 22 -25 22
-20 0 -25 -5 -25 -24z"/>
<path d="M3280 1340 c0 -11 4 -20 9 -20 5 0 16 -3 25 -6 12 -5 16 0 16 20 0
21 -5 26 -25 26 -18 0 -25 -5 -25 -20z"/>
<path d="M3360 1337 c0 -17 6 -23 25 -25 21 -1 25 3 25 23 0 20 -5 25 -25 25
-19 0 -25 -5 -25 -23z"/>
<path d="M3430 1335 c0 -20 4 -24 25 -23 19 2 25 8 25 25 0 18 -6 23 -25 23
-20 0 -25 -5 -25 -25z"/>
<path d="M3500 1337 c0 -18 5 -23 28 -22 20 0 28 6 30 23 3 19 -1 22 -27 22
-26 0 -31 -4 -31 -23z"/>
<path d="M1087 1283 c-4 -3 -7 -15 -7 -25 0 -13 8 -18 30 -18 25 0 30 4 30 25
0 20 -5 25 -23 25 -13 0 -27 -3 -30 -7z"/>
<path d="M1180 1265 c0 -20 5 -25 25 -25 20 0 25 5 25 25 0 20 -5 25 -25 25
-20 0 -25 -5 -25 -25z"/>
<path d="M1280 1265 c0 -29 34 -36 44 -9 8 21 -1 34 -25 34 -14 0 -19 -7 -19
-25z"/>
<path d="M1370 1264 c0 -22 4 -25 28 -22 19 2 28 9 30 26 3 19 -1 22 -27 22
-27 0 -31 -4 -31 -26z"/>
<path d="M1468 1278 c-9 -23 3 -38 28 -38 19 0 24 5 24 25 0 20 -5 25 -24 25
-13 0 -26 -6 -28 -12z"/>
<path d="M1560 1265 c0 -20 5 -25 25 -25 20 0 25 5 25 25 0 20 -5 25 -25 25
-20 0 -25 -5 -25 -25z"/>
<path d="M1650 1265 c0 -20 5 -25 25 -25 20 0 25 5 25 25 0 20 -5 25 -25 25
-20 0 -25 -5 -25 -25z"/>
<path d="M1740 1265 c0 -16 6 -25 15 -25 9 0 15 9 15 25 0 16 -6 25 -15 25 -9
0 -15 -9 -15 -25z"/>
<path d="M3000 1265 c0 -18 5 -25 19 -25 13 0 19 7 19 25 0 18 -6 25 -19 25
-14 0 -19 -7 -19 -25z"/>
<path d="M3060 1265 c0 -20 5 -25 25 -25 20 0 25 5 25 25 0 20 -5 25 -25 25
-20 0 -25 -5 -25 -25z"/>
<path d="M3130 1265 c0 -21 5 -25 30 -25 25 0 30 4 30 25 0 21 -5 25 -30 25
-25 0 -30 -4 -30 -25z"/>
<path d="M3210 1266 c0 -21 5 -26 24 -26 32 0 31 44 -1 48 -19 3 -23 -1 -23
-22z"/>
<path d="M3280 1265 c0 -20 5 -25 25 -25 20 0 25 5 25 25 0 20 -5 25 -25 25
-20 0 -25 -5 -25 -25z"/>
<path d="M3360 1266 c0 -21 5 -26 26 -26 21 0 25 4 22 23 -2 14 -11 23 -25 25
-19 3 -23 -1 -23 -22z"/>
<path d="M3437 1283 c-4 -3 -7 -15 -7 -25 0 -13 7 -18 25 -18 20 0 25 5 25 25
0 18 -5 25 -18 25 -10 0 -22 -3 -25 -7z"/>
<path d="M3500 1265 c0 -21 5 -25 29 -25 24 0 29 4 29 25 0 21 -5 25 -29 25
-24 0 -29 -4 -29 -25z"/>
<path d="M1034 1215 c-9 -23 0 -38 24 -40 18 -1 22 4 22 27 0 21 -5 28 -20 28
-11 0 -23 -7 -26 -15z"/>
<path d="M1136 1223 c-3 -3 -6 -16 -6 -28 0 -18 6 -22 28 -21 22 1 27 6 27 25
0 17 -7 25 -21 27 -12 2 -24 1 -28 -3z"/>
<path d="M1235 1222 c-3 -3 -5 -16 -5 -28 0 -19 5 -23 31 -22 26 1 30 4 27 27
-2 19 -9 26 -25 27 -12 1 -25 -1 -28 -4z"/>
<path d="M1337 1224 c-4 -4 -7 -18 -7 -30 0 -19 5 -23 31 -22 26 1 30 4 27 27
-3 26 -35 41 -51 25z"/>
<path d="M1440 1199 c0 -24 4 -29 25 -29 20 0 25 5 25 25 0 14 -3 25 -7 26 -5
0 -16 2 -25 4 -14 2 -18 -4 -18 -26z"/>
<path d="M1540 1198 c0 -23 4 -29 16 -24 9 3 19 6 23 6 8 0 9 40 1 41 -3 0
-13 2 -22 4 -14 2 -18 -4 -18 -27z"/>
<path d="M1635 1222 c-3 -3 -5 -16 -5 -28 0 -19 5 -23 30 -22 24 1 30 5 30 23
0 16 -7 24 -25 27 -13 3 -27 3 -30 0z"/>
<path d="M1733 1223 c-16 -6 -17 -39 -2 -48 13 -9 19 -3 24 23 4 24 -3 32 -22
25z"/>
<path d="M3000 1194 c0 -33 33 -30 38 4 3 17 -2 22 -17 22 -16 0 -21 -6 -21
-26z"/>
<path d="M3060 1195 c0 -20 5 -25 25 -25 20 0 25 5 25 25 0 20 -5 25 -25 25
-20 0 -25 -5 -25 -25z"/>
<path d="M3130 1197 c0 -18 6 -23 30 -25 26 -2 30 1 30 23 0 21 -5 25 -30 25
-25 0 -30 -4 -30 -23z"/>
<path d="M3210 1196 c0 -18 5 -23 23 -23 17 0 23 6 25 23 1 19 -3 24 -23 24
-20 0 -25 -5 -25 -24z"/>
<path d="M3280 1195 c0 -20 5 -25 25 -25 20 0 25 5 25 25 0 20 -5 25 -25 25
-20 0 -25 -5 -25 -25z"/>
<path d="M3360 1196 c0 -18 5 -23 25 -23 20 0 25 5 25 23 0 19 -5 24 -25 24
-20 0 -25 -5 -25 -24z"/>
<path d="M3430 1196 c0 -18 5 -23 25 -23 20 0 25 5 25 23 0 19 -5 24 -25 24
-20 0 -25 -5 -25 -24z"/>
<path d="M3500 1195 c0 -23 4 -26 28 -23 19 2 27 9 27 23 0 14 -8 21 -27 23
-24 3 -28 0 -28 -23z"/>
<path d="M976 1152 c-3 -3 -6 -16 -6 -29 0 -20 4 -24 27 -21 41 5 39 48 -4 54
-6 1 -14 -1 -17 -4z"/>
<path d="M1093 1153 c-7 -3 -13 -16 -13 -29 0 -19 5 -24 25 -24 20 0 25 5 25
24 0 25 -15 36 -37 29z"/>
<path d="M1203 1153 c-7 -3 -13 -16 -13 -29 0 -19 5 -24 25 -24 20 0 25 5 25
24 0 25 -15 36 -37 29z"/>
<path d="M1315 1151 c-11 -3 -20 -12 -19 -18 1 -7 2 -17 3 -23 0 -5 12 -10 26
-10 20 0 25 5 25 24 0 29 -8 35 -35 27z"/>
<path d="M1400 1125 c0 -20 5 -25 25 -25 20 0 25 5 25 25 0 20 -5 25 -25 25
-20 0 -25 -5 -25 -25z"/>
<path d="M1510 1125 c0 -20 5 -25 24 -25 18 0 24 5 24 25 0 20 -6 25 -24 25
-19 0 -24 -5 -24 -25z"/>
<path d="M1610 1125 c0 -20 5 -25 25 -25 20 0 25 5 25 25 0 20 -5 25 -25 25
-20 0 -25 -5 -25 -25z"/>
<path d="M1704 1125 c-1 -15 3 -25 12 -25 8 0 14 10 14 25 0 33 -25 33 -26 0z"/>
<path d="M3000 1124 c0 -32 31 -30 36 4 3 16 -1 22 -16 22 -15 0 -20 -7 -20
-26z"/>
<path d="M3060 1125 c0 -20 5 -25 25 -25 20 0 25 5 25 25 0 20 -5 25 -25 25
-20 0 -25 -5 -25 -25z"/>
<path d="M3130 1125 c0 -21 5 -25 30 -25 25 0 30 4 30 25 0 21 -5 25 -30 25
-25 0 -30 -4 -30 -25z"/>
<path d="M3210 1125 c0 -20 5 -25 25 -25 20 0 25 5 25 25 0 20 -5 25 -25 25
-20 0 -25 -5 -25 -25z"/>
<path d="M3280 1125 c0 -20 5 -25 25 -25 20 0 25 5 25 25 0 20 -5 25 -25 25
-20 0 -25 -5 -25 -25z"/>
<path d="M3360 1125 c0 -20 5 -25 25 -25 20 0 25 5 25 25 0 20 -5 25 -25 25
-20 0 -25 -5 -25 -25z"/>
<path d="M3430 1125 c0 -20 5 -25 25 -25 20 0 25 5 25 25 0 20 -5 25 -25 25
-20 0 -25 -5 -25 -25z"/>
<path d="M3500 1124 c0 -22 4 -25 28 -22 19 2 28 9 30 26 3 19 -1 22 -27 22
-27 0 -31 -4 -31 -26z"/>
<path d="M900 1055 c0 -20 5 -25 25 -25 20 0 25 5 25 25 0 20 -5 25 -25 25
-20 0 -25 -5 -25 -25z"/>
<path d="M1020 1054 c0 -21 4 -25 23 -22 14 2 23 11 25 26 3 18 -1 22 -22 22
-21 0 -26 -5 -26 -26z"/>
<path d="M1130 1055 c0 -20 5 -25 24 -25 22 0 36 16 36 41 0 5 -13 9 -30 9
-25 0 -30 -4 -30 -25z"/>
<path d="M1250 1055 c0 -20 5 -25 25 -25 20 0 25 5 25 25 0 20 -5 25 -25 25
-20 0 -25 -5 -25 -25z"/>
<path d="M1362 1055 c2 -19 8 -25 25 -25 18 0 23 6 23 25 0 20 -5 25 -25 25
-20 0 -24 -4 -23 -25z"/>
<path d="M1474 1058 c2 -16 11 -24 29 -26 23 -3 27 0 27 22 0 22 -4 26 -30 26
-25 0 -29 -3 -26 -22z"/>
<path d="M1580 1055 c0 -21 5 -25 28 -25 22 0 27 5 28 25 2 21 -2 25 -27 25
-24 0 -29 -4 -29 -25z"/>
<path d="M1690 1055 c0 -14 5 -25 10 -25 6 0 10 11 10 25 0 14 -4 25 -10 25
-5 0 -10 -11 -10 -25z"/>
<path d="M3000 1054 c0 -33 33 -30 38 4 3 17 -2 22 -17 22 -16 0 -21 -6 -21
-26z"/>
<path d="M3060 1055 c0 -20 5 -25 25 -25 20 0 25 5 25 25 0 20 -5 25 -25 25
-20 0 -25 -5 -25 -25z"/>
<path d="M3130 1055 c0 -21 5 -25 30 -25 25 0 30 4 30 25 0 21 -5 25 -30 25
-25 0 -30 -4 -30 -25z"/>
<path d="M3210 1055 c0 -20 5 -25 25 -25 20 0 25 5 25 25 0 20 -5 25 -25 25
-20 0 -25 -5 -25 -25z"/>
<path d="M3280 1055 c0 -20 5 -25 25 -25 20 0 25 5 25 25 0 20 -5 25 -25 25
-20 0 -25 -5 -25 -25z"/>
<path d="M3360 1055 c0 -20 5 -25 25 -25 20 0 25 5 25 25 0 20 -5 25 -25 25
-20 0 -25 -5 -25 -25z"/>
<path d="M3430 1055 c0 -20 5 -25 25 -25 20 0 25 5 25 25 0 20 -5 25 -25 25
-20 0 -25 -5 -25 -25z"/>
<path d="M3500 1054 c0 -22 4 -25 28 -22 19 2 28 9 30 26 3 19 -1 22 -27 22
-27 0 -31 -4 -31 -26z"/>
<path d="M820 985 c0 -20 5 -25 25 -25 20 0 25 5 25 25 0 20 -5 25 -25 25 -20
0 -25 -5 -25 -25z"/>
<path d="M940 985 c0 -20 5 -25 25 -25 20 0 25 5 25 25 0 20 -5 25 -25 25 -20
0 -25 -5 -25 -25z"/>
<path d="M1070 985 c0 -20 5 -25 25 -25 20 0 25 5 25 25 0 20 -5 25 -25 25
-20 0 -25 -5 -25 -25z"/>
<path d="M1200 985 c0 -20 5 -25 25 -25 20 0 25 5 25 25 0 20 -5 25 -25 25
-20 0 -25 -5 -25 -25z"/>
<path d="M1320 985 c0 -20 5 -25 25 -25 20 0 25 5 25 25 0 20 -5 25 -25 25
-20 0 -25 -5 -25 -25z"/>
<path d="M1440 985 c0 -20 5 -25 25 -25 20 0 25 5 25 25 0 20 -5 25 -25 25
-20 0 -25 -5 -25 -25z"/>
<path d="M1558 998 c-9 -23 3 -38 28 -38 19 0 24 5 24 25 0 20 -5 25 -24 25
-13 0 -26 -6 -28 -12z"/>
<path d="M1660 985 c0 -16 6 -25 15 -25 9 0 15 9 15 25 0 16 -6 25 -15 25 -9
0 -15 -9 -15 -25z"/>
<path d="M3000 985 c0 -18 5 -25 20 -25 15 0 19 6 18 25 -2 17 -8 25 -20 25
-13 0 -18 -8 -18 -25z"/>
<path d="M3060 985 c0 -20 5 -25 25 -25 20 0 25 5 25 25 0 20 -5 25 -25 25
-20 0 -25 -5 -25 -25z"/>
<path d="M3130 985 c0 -21 5 -25 30 -25 25 0 30 4 30 25 0 21 -5 25 -30 25
-25 0 -30 -4 -30 -25z"/>
<path d="M3210 985 c0 -20 5 -25 25 -25 20 0 25 5 25 25 0 20 -5 25 -25 25
-20 0 -25 -5 -25 -25z"/>
<path d="M3280 985 c0 -20 5 -25 25 -25 20 0 25 5 25 25 0 20 -5 25 -25 25
-20 0 -25 -5 -25 -25z"/>
<path d="M3360 985 c0 -20 5 -25 25 -25 20 0 25 5 25 25 0 20 -5 25 -25 25
-20 0 -25 -5 -25 -25z"/>
<path d="M3430 985 c0 -20 5 -25 25 -25 20 0 25 5 25 25 0 20 -5 25 -25 25
-20 0 -25 -5 -25 -25z"/>
<path d="M3500 985 c0 -21 5 -25 28 -25 22 0 27 5 28 25 2 21 -2 25 -27 25
-24 0 -29 -4 -29 -25z"/>
<path d="M720 915 c0 -21 5 -25 30 -25 25 0 30 4 30 25 0 21 -5 25 -30 25 -25
0 -30 -4 -30 -25z"/>
<path d="M862 918 c2 -15 11 -24 26 -26 18 -3 22 1 22 22 0 21 -5 26 -26 26
-21 0 -25 -4 -22 -22z"/>
<path d="M1010 915 c0 -18 5 -25 20 -25 15 0 20 7 20 25 0 18 -5 25 -20 25
-15 0 -20 -7 -20 -25z"/>
<path d="M1140 915 c0 -20 5 -25 25 -25 20 0 25 5 25 25 0 20 -5 25 -25 25
-20 0 -25 -5 -25 -25z"/>
<path d="M1280 915 c0 -18 5 -25 20 -25 15 0 20 7 20 25 0 18 -5 25 -20 25
-15 0 -20 -7 -20 -25z"/>
<path d="M1400 915 c0 -20 5 -25 24 -25 22 0 36 16 36 41 0 5 -13 9 -30 9 -25
0 -30 -4 -30 -25z"/>
<path d="M1530 916 c0 -21 5 -26 26 -26 21 0 25 4 22 23 -2 14 -11 23 -25 25
-19 3 -23 -1 -23 -22z"/>
<path d="M1640 915 c0 -14 5 -25 10 -25 6 0 10 11 10 25 0 14 -4 25 -10 25 -5
0 -10 -11 -10 -25z"/>
<path d="M3000 916 c0 -25 25 -43 35 -25 10 15 -5 49 -21 49 -8 0 -14 -10 -14
-24z"/>
<path d="M3060 916 c0 -15 7 -26 19 -29 25 -6 31 0 31 30 0 18 -5 23 -25 23
-20 0 -25 -5 -25 -24z"/>
<path d="M3130 916 c0 -17 7 -25 25 -28 30 -6 35 -2 35 29 0 19 -5 23 -30 23
-25 0 -30 -4 -30 -24z"/>
<path d="M3210 911 c0 -25 3 -28 25 -23 18 3 25 11 25 28 0 19 -5 24 -25 24
-21 0 -25 -5 -25 -29z"/>
<path d="M3280 917 c0 -30 6 -36 31 -30 12 3 19 14 19 29 0 19 -5 24 -25 24
-20 0 -25 -5 -25 -23z"/>
<path d="M3360 911 c0 -25 3 -28 25 -23 18 3 25 11 25 28 0 19 -5 24 -25 24
-21 0 -25 -5 -25 -29z"/>
<path d="M3430 915 c0 -20 5 -25 25 -25 20 0 25 5 25 25 0 20 -5 25 -25 25
-20 0 -25 -5 -25 -25z"/>
<path d="M3500 917 c0 -26 28 -41 50 -27 21 13 7 45 -23 48 -23 3 -27 0 -27
-21z"/>
<path d="M622 848 c4 -32 52 -32 56 0 3 19 -1 22 -28 22 -27 0 -31 -3 -28 -22z"/>
<path d="M780 844 c0 -21 4 -25 23 -22 14 2 23 11 25 26 3 18 -1 22 -22 22
-21 0 -26 -5 -26 -26z"/>
<path d="M932 848 c2 -15 10 -23 23 -23 13 0 21 8 23 23 3 18 -1 22 -23 22
-22 0 -26 -4 -23 -22z"/>
<path d="M1080 845 c0 -20 5 -25 25 -25 20 0 25 5 25 25 0 20 -5 25 -25 25
-20 0 -25 -5 -25 -25z"/>
<path d="M1230 844 c0 -21 4 -25 23 -22 14 2 23 11 25 26 3 18 -1 22 -22 22
-21 0 -26 -5 -26 -26z"/>
<path d="M1370 844 c0 -33 33 -30 38 4 3 17 -2 22 -17 22 -16 0 -21 -6 -21
-26z"/>
<path d="M1490 845 c0 -15 6 -25 14 -25 28 0 46 12 46 31 0 14 -7 19 -30 19
-25 0 -30 -4 -30 -25z"/>
<path d="M1610 845 c0 -16 6 -25 15 -25 9 0 15 9 15 25 0 16 -6 25 -15 25 -9
0 -15 -9 -15 -25z"/>
<path d="M3000 845 c0 -18 5 -25 20 -25 21 0 24 8 14 34 -10 25 -34 19 -34 -9z"/>
<path d="M3060 845 c0 -20 4 -24 25 -23 19 2 25 8 25 25 0 18 -6 23 -25 23
-20 0 -25 -5 -25 -25z"/>
<path d="M3130 845 c0 -21 5 -25 30 -25 25 0 30 4 30 25 0 21 -5 25 -30 25
-25 0 -30 -4 -30 -25z"/>
<path d="M3210 845 c0 -20 4 -24 25 -23 19 2 25 8 25 25 0 18 -6 23 -25 23
-20 0 -25 -5 -25 -25z"/>
<path d="M3282 848 c2 -15 10 -23 23 -23 13 0 21 8 23 23 3 18 -1 22 -23 22
-22 0 -26 -4 -23 -22z"/>
<path d="M3360 846 c0 -32 44 -31 48 2 3 18 -1 22 -22 22 -21 0 -26 -5 -26
-24z"/>
<path d="M3430 845 c0 -26 7 -29 34 -19 27 10 20 44 -9 44 -20 0 -25 -5 -25
-25z"/>
<path d="M3502 848 c2 -17 10 -23 28 -23 18 0 26 6 28 23 3 19 -1 22 -28 22
-27 0 -31 -3 -28 -22z"/>
<path d="M519 808 c0 -2 -3 -15 -5 -30 -4 -24 -1 -28 21 -28 21 0 25 5 25 30
0 23 -4 30 -20 30 -11 0 -20 -1 -21 -2z"/>
<path d="M697 803 c-4 -3 -7 -17 -7 -30 0 -20 5 -24 23 -21 20 3 23 10 18 48
-1 11 -24 13 -34 3z"/>
<path d="M878 803 c-11 -3 -18 -14 -18 -29 0 -35 45 -35 48 1 2 27 -5 33 -30
28z"/>
<path d="M1020 775 c0 -20 5 -25 25 -25 20 0 25 5 25 25 0 20 -5 25 -25 25
-20 0 -25 -5 -25 -25z"/>
<path d="M1180 775 c0 -20 5 -25 25 -25 20 0 25 5 25 25 0 20 -5 25 -25 25
-20 0 -25 -5 -25 -25z"/>
<path d="M1320 775 c0 -21 5 -25 30 -25 25 0 30 4 30 25 0 21 -5 25 -30 25
-25 0 -30 -4 -30 -25z"/>
<path d="M1466 785 c-11 -29 -7 -35 25 -35 26 0 30 3 27 23 -4 27 -42 36 -52
12z"/>
<path d="M1586 784 c-10 -26 -7 -34 14 -34 15 0 20 7 20 25 0 28 -24 34 -34 9z"/>
<path d="M3000 776 c0 -20 5 -26 21 -26 15 0 20 5 17 22 -5 34 -38 37 -38 4z"/>
<path d="M3060 775 c0 -20 5 -25 25 -25 20 0 25 5 25 25 0 20 -5 25 -25 25
-20 0 -25 -5 -25 -25z"/>
<path d="M3130 775 c0 -21 5 -25 30 -25 25 0 30 4 30 23 0 18 -6 23 -30 25
-26 2 -30 -1 -30 -23z"/>
<path d="M3210 775 c0 -20 5 -25 25 -25 20 0 24 4 23 25 -2 19 -8 25 -25 25
-18 0 -23 -6 -23 -25z"/>
<path d="M3280 775 c0 -20 5 -25 25 -25 20 0 25 5 25 25 0 20 -5 25 -25 25
-20 0 -25 -5 -25 -25z"/>
<path d="M3360 775 c0 -22 4 -26 23 -23 14 2 22 10 22 23 0 13 -8 21 -22 23
-19 3 -23 -1 -23 -23z"/>
<path d="M3430 775 c0 -20 5 -25 25 -25 20 0 25 5 25 25 0 20 -5 25 -25 25
-20 0 -25 -5 -25 -25z"/>
<path d="M3507 793 c-4 -3 -7 -15 -7 -25 0 -13 8 -18 30 -18 25 0 30 4 30 25
0 20 -5 25 -23 25 -13 0 -27 -3 -30 -7z"/>
<path d="M399 708 c4 -12 17 -23 29 -25 18 -2 22 2 22 22 0 21 -5 25 -30 25
-26 0 -28 -3 -21 -22z"/>
<path d="M592 708 c2 -15 11 -24 26 -26 18 -3 22 1 22 22 0 21 -5 26 -26 26
-21 0 -25 -4 -22 -22z"/>
<path d="M780 704 c0 -21 4 -25 23 -22 14 2 23 11 25 26 3 18 -1 22 -22 22
-21 0 -26 -5 -26 -26z"/>
<path d="M960 705 c0 -20 5 -25 25 -25 20 0 25 5 25 25 0 20 -5 25 -25 25 -20
0 -25 -5 -25 -25z"/>
<path d="M1130 705 c0 -20 5 -25 25 -25 20 0 25 5 25 25 0 20 -5 25 -25 25
-20 0 -25 -5 -25 -25z"/>
<path d="M1290 705 c0 -20 5 -25 25 -25 20 0 25 5 25 25 0 20 -5 25 -25 25
-20 0 -25 -5 -25 -25z"/>
<path d="M1440 706 c0 -21 5 -26 26 -26 21 0 25 4 22 23 -2 14 -11 23 -25 25
-19 3 -23 -1 -23 -22z"/>
<path d="M1560 704 c0 -18 5 -25 17 -22 9 2 18 9 21 17 3 9 0 11 -9 5 -12 -7
-12 -5 0 9 12 15 11 17 -8 17 -16 0 -21 -6 -21 -26z"/>
<path d="M3000 704 c0 -33 33 -30 38 4 3 17 -2 22 -17 22 -16 0 -21 -6 -21
-26z"/>
<path d="M3060 705 c0 -20 5 -25 25 -25 20 0 25 5 25 25 0 20 -5 25 -25 25
-20 0 -25 -5 -25 -25z"/>
<path d="M3130 705 c0 -21 5 -25 30 -25 25 0 30 4 30 25 0 21 -5 25 -30 25
-25 0 -30 -4 -30 -25z"/>
<path d="M3210 705 c0 -19 5 -25 23 -25 17 0 23 6 25 25 1 21 -3 25 -23 25
-20 0 -25 -5 -25 -25z"/>
<path d="M3280 705 c0 -20 5 -25 25 -25 20 0 25 5 25 25 0 20 -5 25 -25 25
-20 0 -25 -5 -25 -25z"/>
<path d="M3360 705 c0 -20 5 -25 25 -25 20 0 25 5 25 25 0 20 -5 25 -25 25
-20 0 -25 -5 -25 -25z"/>
<path d="M3430 705 c0 -20 5 -25 25 -25 20 0 25 5 25 25 0 20 -5 25 -25 25
-20 0 -25 -5 -25 -25z"/>
<path d="M3502 708 c2 -17 11 -24 31 -26 23 -3 27 0 27 22 0 22 -4 26 -31 26
-26 0 -30 -3 -27 -22z"/>
<path d="M287 664 c-4 -4 -7 -18 -7 -31 0 -19 5 -23 30 -23 25 0 30 4 30 25 0
14 -4 25 -9 25 -5 0 -16 2 -23 5 -8 3 -17 2 -21 -1z"/>
<path d="M500 638 c0 -23 4 -28 25 -28 21 0 25 5 25 28 0 22 -4 27 -25 27 -21
0 -25 -5 -25 -27z"/>
<path d="M710 635 c0 -20 5 -25 25 -25 20 0 25 5 25 25 0 20 -5 25 -25 25 -20
0 -25 -5 -25 -25z"/>
<path d="M900 635 c0 -21 5 -25 30 -25 26 0 29 3 28 25 -2 20 -8 25 -30 25
-23 0 -28 -4 -28 -25z"/>
<path d="M1080 635 c0 -21 5 -25 28 -25 22 0 27 5 28 25 2 21 -2 25 -27 25
-24 0 -29 -4 -29 -25z"/>
<path d="M1260 635 c0 -20 5 -25 25 -25 26 0 29 7 19 34 -10 27 -44 20 -44 -9z"/>
<path d="M1410 635 c0 -20 5 -25 25 -25 20 0 25 5 25 25 0 20 -5 25 -25 25
-20 0 -25 -5 -25 -25z"/>
<path d="M1540 635 c0 -16 6 -25 15 -25 9 0 15 9 15 25 0 16 -6 25 -15 25 -9
0 -15 -9 -15 -25z"/>
<path d="M3000 635 c0 -14 5 -25 10 -25 6 0 13 -1 17 -2 3 -2 7 9 7 25 1 20
-3 27 -16 27 -13 0 -18 -8 -18 -25z"/>
<path d="M3060 635 c0 -20 5 -25 25 -25 20 0 25 5 25 25 0 20 -5 25 -25 25
-20 0 -25 -5 -25 -25z"/>
<path d="M3130 635 c0 -21 5 -25 30 -25 25 0 30 4 30 25 0 21 -5 25 -30 25
-25 0 -30 -4 -30 -25z"/>
<path d="M3210 635 c0 -20 5 -25 25 -25 20 0 25 5 25 25 0 20 -5 25 -25 25
-20 0 -25 -5 -25 -25z"/>
<path d="M3280 637 c0 -30 6 -36 31 -30 12 3 19 14 19 29 0 19 -5 24 -25 24
-20 0 -25 -5 -25 -23z"/>
<path d="M3360 636 c0 -13 6 -26 13 -29 22 -7 37 4 37 29 0 19 -5 24 -25 24
-20 0 -25 -5 -25 -24z"/>
<path d="M3430 636 c0 -13 6 -26 13 -29 22 -7 37 4 37 29 0 19 -5 24 -25 24
-20 0 -25 -5 -25 -24z"/>
<path d="M3500 635 c0 -21 5 -25 30 -25 25 0 30 4 30 25 0 21 -5 25 -30 25
-25 0 -30 -4 -30 -25z"/>
<path d="M180 565 c0 -20 5 -25 24 -25 18 0 24 5 24 25 0 20 -6 25 -24 25 -19
0 -24 -5 -24 -25z"/>
<path d="M420 565 c0 -20 5 -25 25 -25 20 0 25 5 25 25 0 20 -5 25 -25 25 -20
0 -25 -5 -25 -25z"/>
<path d="M640 565 c0 -21 5 -25 30 -25 25 0 30 4 30 25 0 21 -5 25 -30 25 -25
0 -30 -4 -30 -25z"/>
<path d="M860 564 c0 -20 4 -25 22 -22 32 5 33 48 1 48 -18 0 -23 -5 -23 -26z"/>
<path d="M1050 565 c0 -20 5 -25 25 -25 20 0 25 5 25 25 0 20 -5 25 -25 25
-20 0 -25 -5 -25 -25z"/>
<path d="M1220 581 c0 -25 14 -41 36 -41 19 0 24 5 24 25 0 21 -5 25 -30 25
-16 0 -30 -4 -30 -9z"/>
<path d="M1390 565 c0 -20 5 -25 25 -25 20 0 25 5 25 25 0 20 -5 25 -25 25
-20 0 -25 -5 -25 -25z"/>
<path d="M1530 565 c0 -14 5 -25 10 -25 6 0 10 11 10 25 0 14 -4 25 -10 25 -5
0 -10 -11 -10 -25z"/>
<path d="M3000 566 c0 -25 25 -43 35 -25 10 15 -5 49 -21 49 -8 0 -14 -10 -14
-24z"/>
<path d="M3060 566 c0 -17 7 -25 25 -28 22 -5 25 -2 25 23 0 24 -4 29 -25 29
-20 0 -25 -5 -25 -24z"/>
<path d="M3132 563 c3 -27 8 -29 48 -24 6 0 10 12 10 26 0 21 -5 25 -31 25
-27 0 -30 -3 -27 -27z"/>
<path d="M3210 560 c0 -25 3 -29 23 -26 15 2 23 11 25 29 3 23 0 27 -22 27
-22 0 -26 -4 -26 -30z"/>
<path d="M3283 563 c3 -20 9 -28 23 -28 13 0 20 8 22 28 3 23 0 27 -23 27 -22
0 -25 -4 -22 -27z"/>
<path d="M3360 561 c0 -22 4 -28 18 -26 9 2 20 4 25 4 4 1 7 12 7 26 0 20 -5
25 -25 25 -21 0 -25 -5 -25 -29z"/>
<path d="M3430 561 c0 -22 4 -28 18 -26 9 2 20 4 25 4 4 1 7 12 7 26 0 20 -5
25 -25 25 -21 0 -25 -5 -25 -29z"/>
<path d="M3502 563 c2 -22 8 -28 28 -28 20 0 26 6 28 28 3 24 0 27 -28 27 -28
0 -31 -3 -28 -27z"/>
<path d="M90 500 c0 -15 7 -20 25 -20 18 0 25 5 25 20 0 15 -7 20 -25 20 -18
0 -25 -5 -25 -20z"/>
<path d="M350 502 c0 -25 7 -31 31 -25 29 8 25 43 -6 43 -18 0 -25 -5 -25 -18z"/>
<path d="M602 498 c2 -17 9 -22 23 -20 26 5 29 8 22 27 -4 8 -16 15 -27 15
-16 0 -21 -5 -18 -22z"/>
<path d="M820 501 c0 -24 13 -33 34 -25 27 10 20 44 -9 44 -18 0 -25 -5 -25
-19z"/>
<path d="M1020 501 c0 -10 9 -21 19 -24 24 -6 31 0 31 25 0 13 -7 18 -25 18
-18 0 -25 -5 -25 -19z"/>
<path d="M1200 501 c0 -21 22 -33 45 -25 8 4 15 15 15 25 0 14 -7 19 -30 19
-23 0 -30 -5 -30 -19z"/>
<path d="M1370 494 c0 -22 4 -25 27 -22 18 2 27 10 29 26 3 19 -1 22 -26 22
-26 0 -30 -4 -30 -26z"/>
<path d="M1513 495 c0 -15 5 -25 13 -25 8 0 14 10 14 25 0 15 -6 25 -14 25 -8
0 -13 -10 -13 -25z"/>
<path d="M3000 490 c0 -23 5 -30 18 -30 14 0 19 8 20 30 0 23 -4 30 -19 30
-14 0 -19 -7 -19 -30z"/>
<path d="M3060 490 c0 -21 5 -30 16 -30 9 0 12 5 8 13 -5 8 -2 8 9 -2 15 -12
17 -10 17 18 0 26 -4 31 -25 31 -21 0 -25 -5 -25 -30z"/>
<path d="M3132 493 c2 -22 8 -28 27 -28 19 0 25 6 28 28 3 24 1 27 -27 27 -28
0 -31 -3 -28 -27z"/>
<path d="M3210 490 c0 -23 5 -30 19 -30 19 0 31 18 31 46 0 8 -10 14 -25 14
-21 0 -25 -5 -25 -30z"/>
<path d="M3282 493 c2 -20 9 -29 26 -31 19 -3 22 1 22 27 0 27 -4 31 -26 31
-22 0 -25 -4 -22 -27z"/>
<path d="M3360 490 c0 -25 4 -30 25 -30 21 0 25 5 25 30 0 25 -4 30 -25 30
-21 0 -25 -5 -25 -30z"/>
<path d="M3430 490 c0 -25 4 -30 25 -30 21 0 25 5 25 30 0 25 -4 30 -25 30
-21 0 -25 -5 -25 -30z"/>
<path d="M3502 493 c4 -35 43 -45 53 -14 9 28 -1 41 -31 41 -22 0 -25 -4 -22
-27z"/>
<path d="M40 435 c0 -9 9 -15 25 -15 16 0 25 6 25 15 0 9 -9 15 -25 15 -16 0
-25 -6 -25 -15z"/>
<path d="M312 433 c3 -16 12 -19 48 -14 6 0 10 8 10 16 0 10 -10 15 -31 15
-24 0 -30 -4 -27 -17z"/>
<path d="M566 441 c-8 -13 21 -34 39 -27 25 9 18 36 -9 36 -14 0 -27 -4 -30
-9z"/>
<path d="M800 431 c0 -13 7 -18 25 -18 18 0 25 5 25 18 0 14 -7 19 -25 19 -18
0 -25 -5 -25 -19z"/>
<path d="M1010 430 c0 -13 7 -20 20 -20 13 0 20 7 20 20 0 13 -7 20 -20 20
-13 0 -20 -7 -20 -20z"/>
<path d="M1190 430 c0 -15 7 -20 25 -20 18 0 25 5 25 20 0 15 -7 20 -25 20
-18 0 -25 -5 -25 -20z"/>
<path d="M1360 430 c0 -15 7 -20 25 -20 18 0 25 5 25 20 0 15 -7 20 -25 20
-18 0 -25 -5 -25 -20z"/>
<path d="M1510 430 c0 -11 5 -20 10 -20 6 0 10 9 10 20 0 11 -4 20 -10 20 -5
0 -10 -9 -10 -20z"/>
<path d="M3000 429 c0 -12 7 -19 19 -19 24 0 22 32 -2 36 -11 1 -17 -5 -17
-17z"/>
<path d="M3060 430 c0 -15 7 -20 25 -20 18 0 25 5 25 20 0 15 -7 20 -25 20
-18 0 -25 -5 -25 -20z"/>
<path d="M3130 428 c0 -26 55 -26 57 0 1 14 -6 18 -28 18 -21 0 -29 -4 -29
-18z"/>
<path d="M3210 430 c0 -15 7 -20 25 -20 18 0 25 5 25 20 0 15 -7 20 -25 20
-18 0 -25 -5 -25 -20z"/>
<path d="M3287 443 c-16 -15 -6 -33 18 -33 18 0 25 5 25 20 0 20 -28 28 -43
13z"/>
<path d="M3360 430 c0 -15 7 -20 25 -20 28 0 34 24 9 34 -26 10 -34 7 -34 -14z"/>
<path d="M3435 441 c-14 -13 -2 -31 20 -31 18 0 25 5 25 19 0 14 -6 19 -20 18
-12 -1 -23 -3 -25 -6z"/>
<path d="M3500 430 c0 -16 7 -20 30 -20 32 0 42 23 14 34 -29 11 -44 6 -44
-14z"/>
</g>
</svg>
